<svg width="368" height="279" viewBox="0 0 368 279" fill="none" xmlns="http://www.w3.org/2000/svg">
<path d="M368 245.243H0V245.427H368V245.243Z" fill="#EBEBEB"/>
<path d="M57.7464 252.25H38.6104V252.434H57.7464V252.25Z" fill="#EBEBEB"/>
<path d="M147.516 250.255H107.698V250.439H147.516V250.255Z" fill="#EBEBEB"/>
<path d="M77.8549 259.087H58.4834V259.271H77.8549V259.087Z" fill="#EBEBEB"/>
<path d="M331.126 257.851H316.973V258.035H331.126V257.851Z" fill="#EBEBEB"/>
<path d="M310.416 257.851H288.122V258.035H310.416V257.851Z" fill="#EBEBEB"/>
<path d="M230.214 254.745H190.058V254.929H230.214V254.745Z" fill="#EBEBEB"/>
<path d="M174.433 212.417H32.3182C31.2049 212.415 30.1379 211.972 29.3513 211.184C28.5648 210.396 28.123 209.328 28.123 208.215V8.44213C28.1327 7.3352 28.5788 6.2768 29.3643 5.49682C30.1498 4.71683 31.2113 4.27826 32.3182 4.27637H174.433C175.547 4.27637 176.616 4.71914 177.404 5.50727C178.192 6.2954 178.635 7.36434 178.635 8.47893V208.215C178.635 209.329 178.192 210.398 177.404 211.186C176.616 211.974 175.547 212.417 174.433 212.417ZM32.3182 4.42357C31.2537 4.42552 30.2335 4.84976 29.4815 5.60317C28.7294 6.35659 28.307 7.37761 28.307 8.44213V208.215C28.307 209.279 28.7294 210.3 29.4815 211.054C30.2335 211.807 31.2537 212.231 32.3182 212.233H174.433C175.498 212.231 176.519 211.807 177.272 211.054C178.025 210.301 178.449 209.28 178.451 208.215V8.44213C178.449 7.37694 178.025 6.35593 177.272 5.60272C176.519 4.84952 175.498 4.42551 174.433 4.42357H32.3182Z" fill="#EBEBEB"/>
<path d="M333.637 212.417H191.515C190.401 212.415 189.333 211.972 188.546 211.184C187.758 210.396 187.314 209.329 187.312 208.215V8.44213C187.324 7.33453 187.772 6.27614 188.558 5.49636C189.345 4.71658 190.407 4.27824 191.515 4.27637H333.637C334.742 4.2802 335.802 4.71962 336.586 5.4994C337.37 6.27918 337.815 7.33647 337.824 8.44213V208.215C337.824 209.327 337.384 210.393 336.599 211.181C335.814 211.969 334.749 212.413 333.637 212.417ZM191.515 4.42357C190.45 4.42551 189.429 4.84952 188.676 5.60272C187.922 6.35593 187.498 7.37694 187.496 8.44213V208.215C187.498 209.28 187.922 210.301 188.676 211.054C189.429 211.807 190.45 212.231 191.515 212.233H333.637C334.702 212.231 335.723 211.807 336.476 211.054C337.229 210.301 337.653 209.28 337.655 208.215V8.44213C337.653 7.37694 337.229 6.35593 336.476 5.60272C335.723 4.84952 334.702 4.42551 333.637 4.42357H191.515Z" fill="#EBEBEB"/>
<path d="M281.292 73.9092H230.191L223.133 80.9674V238.184L230.191 245.243H281.292L288.35 238.184V80.9674L281.292 73.9092Z" fill="#E0E0E0"/>
<path d="M223.133 238.185L230.191 245.243H246.037L238.979 238.185H223.133Z" fill="#EBEBEB"/>
<path d="M223.133 80.9674L230.191 73.9092H246.037L238.979 80.9674H223.133Z" fill="#EBEBEB"/>
<path d="M309.422 73.9092H246.038L238.979 80.9674V238.184L246.038 245.243H309.422C312.175 242.483 313.72 240.937 316.48 238.184V80.9674L309.422 73.9092Z" fill="#EBEBEB"/>
<path d="M246.934 241.945L242.275 237.287V81.8654L246.934 77.2065H308.523L313.182 81.8654V237.287L308.523 241.945H246.934Z" fill="white"/>
<path d="M313.182 85.5674H245.573V99.1834H313.182V85.5674Z" fill="#EBEBEB"/>
<path d="M309.362 223.538C309.361 223.656 309.395 223.772 309.459 223.871C309.524 223.97 309.616 224.048 309.725 224.094C309.834 224.14 309.954 224.153 310.07 224.131C310.186 224.109 310.293 224.053 310.377 223.97C310.462 223.886 310.519 223.78 310.543 223.664C310.566 223.549 310.555 223.428 310.51 223.319C310.465 223.21 310.389 223.116 310.29 223.05C310.192 222.984 310.077 222.949 309.959 222.949C309.802 222.949 309.651 223.011 309.54 223.121C309.428 223.231 309.364 223.381 309.362 223.538Z" fill="#F5F5F5"/>
<path d="M306.529 223.538C306.529 223.654 306.564 223.768 306.629 223.865C306.693 223.962 306.785 224.037 306.893 224.082C307 224.127 307.119 224.138 307.233 224.116C307.347 224.093 307.452 224.037 307.534 223.954C307.617 223.872 307.673 223.767 307.696 223.653C307.718 223.539 307.707 223.42 307.662 223.313C307.618 223.205 307.542 223.113 307.445 223.048C307.348 222.984 307.235 222.949 307.118 222.949C306.962 222.949 306.812 223.011 306.702 223.122C306.591 223.232 306.529 223.382 306.529 223.538Z" fill="white"/>
<path d="M303.688 223.538C303.688 223.654 303.723 223.768 303.788 223.865C303.852 223.962 303.944 224.037 304.052 224.082C304.16 224.127 304.278 224.138 304.392 224.116C304.506 224.093 304.611 224.037 304.694 223.954C304.776 223.872 304.832 223.767 304.855 223.653C304.877 223.539 304.866 223.42 304.821 223.313C304.777 223.205 304.701 223.113 304.604 223.048C304.508 222.984 304.394 222.949 304.277 222.949C304.121 222.949 303.971 223.011 303.861 223.122C303.751 223.232 303.688 223.382 303.688 223.538Z" fill="#F5F5F5"/>
<path d="M313.182 91.0508H245.573V93.7004H313.182V91.0508Z" fill="#F5F5F5"/>
<path d="M242.276 99.1836H245.573V85.5676H242.276V99.1836Z" fill="#E0E0E0"/>
<path d="M313.182 100.501H245.573V114.117H313.182V100.501Z" fill="#EBEBEB"/>
<path d="M309.362 208.604C309.361 208.723 309.395 208.839 309.459 208.938C309.524 209.037 309.616 209.114 309.725 209.16C309.834 209.207 309.954 209.22 310.07 209.197C310.186 209.175 310.293 209.119 310.377 209.036C310.462 208.953 310.519 208.847 310.543 208.731C310.566 208.615 310.555 208.495 310.51 208.385C310.465 208.276 310.389 208.182 310.29 208.117C310.192 208.051 310.077 208.016 309.959 208.016C309.802 208.016 309.651 208.077 309.54 208.188C309.428 208.298 309.364 208.448 309.362 208.604Z" fill="#F5F5F5"/>
<path d="M306.529 208.604C306.529 208.721 306.564 208.835 306.629 208.932C306.693 209.028 306.785 209.104 306.893 209.148C307 209.193 307.119 209.205 307.233 209.182C307.347 209.159 307.452 209.103 307.534 209.021C307.617 208.938 307.673 208.833 307.696 208.719C307.718 208.605 307.707 208.487 307.662 208.379C307.618 208.271 307.542 208.18 307.445 208.115C307.348 208.05 307.235 208.016 307.118 208.016C306.962 208.016 306.812 208.078 306.702 208.188C306.591 208.299 306.529 208.448 306.529 208.604Z" fill="white"/>
<path d="M303.688 208.604C303.688 208.721 303.723 208.835 303.788 208.932C303.852 209.028 303.944 209.104 304.052 209.148C304.16 209.193 304.278 209.205 304.392 209.182C304.506 209.159 304.611 209.103 304.694 209.021C304.776 208.938 304.832 208.833 304.855 208.719C304.877 208.605 304.866 208.487 304.821 208.379C304.777 208.271 304.701 208.18 304.604 208.115C304.508 208.05 304.394 208.016 304.277 208.016C304.121 208.016 303.971 208.078 303.861 208.188C303.751 208.299 303.688 208.448 303.688 208.604Z" fill="white"/>
<path d="M313.182 105.984H245.573V108.634H313.182V105.984Z" fill="#F5F5F5"/>
<path d="M242.276 114.117H245.573V100.501H242.276V114.117Z" fill="#E0E0E0"/>
<path d="M313.182 115.435H245.573V129.051H313.182V115.435Z" fill="#EBEBEB"/>
<path d="M309.362 193.679C309.362 193.797 309.397 193.912 309.463 194.01C309.528 194.108 309.621 194.184 309.73 194.23C309.839 194.275 309.959 194.286 310.075 194.263C310.19 194.24 310.297 194.184 310.38 194.1C310.463 194.017 310.52 193.911 310.543 193.795C310.566 193.679 310.554 193.56 310.509 193.451C310.464 193.342 310.388 193.249 310.29 193.183C310.192 193.118 310.076 193.083 309.959 193.083C309.88 193.082 309.802 193.096 309.729 193.126C309.656 193.156 309.59 193.199 309.535 193.255C309.479 193.311 309.435 193.377 309.406 193.449C309.376 193.522 309.361 193.6 309.362 193.679Z" fill="#F5F5F5"/>
<path d="M306.529 193.679C306.529 193.835 306.591 193.985 306.702 194.095C306.812 194.205 306.962 194.267 307.118 194.267C307.274 194.267 307.424 194.205 307.534 194.095C307.645 193.985 307.707 193.835 307.707 193.679C307.707 193.522 307.645 193.373 307.534 193.262C307.424 193.152 307.274 193.09 307.118 193.09C306.962 193.09 306.812 193.152 306.702 193.262C306.591 193.373 306.529 193.522 306.529 193.679Z" fill="#F5F5F5"/>
<path d="M303.689 193.679C303.69 193.795 303.726 193.908 303.791 194.004C303.857 194.1 303.949 194.174 304.057 194.217C304.165 194.261 304.283 194.271 304.397 194.248C304.51 194.224 304.615 194.168 304.696 194.085C304.778 194.002 304.833 193.898 304.855 193.784C304.877 193.669 304.865 193.551 304.821 193.444C304.776 193.337 304.7 193.246 304.604 193.181C304.507 193.117 304.393 193.083 304.277 193.083C304.199 193.083 304.122 193.098 304.05 193.128C303.978 193.158 303.913 193.202 303.858 193.258C303.804 193.313 303.76 193.379 303.731 193.451C303.702 193.523 303.688 193.601 303.689 193.679Z" fill="#F5F5F5"/>
<path d="M313.182 120.918H245.573V123.568H313.182V120.918Z" fill="#F5F5F5"/>
<path d="M242.276 129.05H245.573V115.434H242.276V129.05Z" fill="#E0E0E0"/>
<path d="M313.182 130.368H245.573V143.984H313.182V130.368Z" fill="#EBEBEB"/>
<path d="M309.362 178.745C309.362 178.863 309.397 178.978 309.463 179.076C309.528 179.174 309.621 179.251 309.73 179.296C309.839 179.341 309.959 179.353 310.075 179.33C310.19 179.307 310.297 179.25 310.38 179.167C310.463 179.083 310.52 178.977 310.543 178.861C310.566 178.746 310.554 178.626 310.509 178.517C310.464 178.408 310.388 178.315 310.29 178.249C310.192 178.184 310.076 178.149 309.959 178.149C309.88 178.148 309.802 178.163 309.729 178.192C309.656 178.222 309.59 178.266 309.535 178.321C309.479 178.377 309.435 178.443 309.406 178.516C309.376 178.589 309.361 178.667 309.362 178.745Z" fill="white"/>
<path d="M306.529 178.745C306.529 178.901 306.591 179.051 306.702 179.161C306.812 179.272 306.962 179.334 307.118 179.334C307.274 179.334 307.424 179.272 307.534 179.161C307.645 179.051 307.707 178.901 307.707 178.745C307.707 178.589 307.645 178.439 307.534 178.329C307.424 178.218 307.274 178.156 307.118 178.156C306.962 178.156 306.812 178.218 306.702 178.329C306.591 178.439 306.529 178.589 306.529 178.745Z" fill="white"/>
<path d="M303.689 178.745C303.69 178.861 303.726 178.974 303.791 179.07C303.857 179.166 303.949 179.24 304.057 179.284C304.165 179.327 304.283 179.338 304.397 179.314C304.51 179.291 304.615 179.234 304.696 179.151C304.778 179.069 304.833 178.964 304.855 178.85C304.877 178.736 304.865 178.618 304.821 178.511C304.776 178.404 304.7 178.312 304.604 178.248C304.507 178.183 304.393 178.149 304.277 178.149C304.199 178.149 304.122 178.164 304.05 178.194C303.978 178.225 303.913 178.269 303.858 178.324C303.804 178.379 303.76 178.445 303.731 178.518C303.702 178.59 303.688 178.667 303.689 178.745Z" fill="#F5F5F5"/>
<path d="M313.182 135.851H245.573V138.501H313.182V135.851Z" fill="#F5F5F5"/>
<path d="M242.276 143.984H245.573V130.368H242.276V143.984Z" fill="#E0E0E0"/>
<path d="M313.182 145.301H245.573V158.917H313.182V145.301Z" fill="#EBEBEB"/>
<path d="M309.362 163.812C309.362 163.93 309.397 164.045 309.463 164.143C309.528 164.241 309.621 164.318 309.73 164.363C309.839 164.408 309.959 164.42 310.075 164.397C310.19 164.374 310.297 164.317 310.38 164.234C310.463 164.15 310.52 164.044 310.543 163.928C310.566 163.813 310.554 163.693 310.509 163.584C310.464 163.475 310.388 163.382 310.29 163.316C310.192 163.251 310.076 163.216 309.959 163.216C309.88 163.215 309.802 163.23 309.729 163.259C309.656 163.289 309.59 163.333 309.535 163.388C309.479 163.444 309.435 163.51 309.406 163.583C309.376 163.655 309.361 163.733 309.362 163.812Z" fill="white"/>
<path d="M306.529 163.811C306.529 163.968 306.591 164.117 306.702 164.228C306.812 164.338 306.962 164.4 307.118 164.4C307.274 164.4 307.424 164.338 307.534 164.228C307.645 164.117 307.707 163.968 307.707 163.811C307.707 163.655 307.645 163.506 307.534 163.395C307.424 163.285 307.274 163.223 307.118 163.223C306.962 163.223 306.812 163.285 306.702 163.395C306.591 163.506 306.529 163.655 306.529 163.811Z" fill="white"/>
<path d="M303.689 163.812C303.69 163.928 303.726 164.041 303.791 164.137C303.857 164.233 303.949 164.307 304.057 164.351C304.165 164.394 304.283 164.405 304.397 164.381C304.51 164.358 304.615 164.301 304.696 164.218C304.778 164.136 304.833 164.031 304.855 163.917C304.877 163.803 304.865 163.685 304.821 163.578C304.776 163.47 304.7 163.379 304.604 163.315C304.507 163.25 304.393 163.216 304.277 163.216C304.199 163.216 304.122 163.231 304.05 163.261C303.978 163.291 303.913 163.335 303.858 163.391C303.804 163.446 303.76 163.512 303.731 163.584C303.702 163.657 303.688 163.734 303.689 163.812Z" fill="white"/>
<path d="M313.182 150.785H245.573V153.434H313.182V150.785Z" fill="#F5F5F5"/>
<path d="M242.276 158.917H245.573V145.301H242.276V158.917Z" fill="#E0E0E0"/>
<path d="M313.182 160.235H245.573V173.851H313.182V160.235Z" fill="#EBEBEB"/>
<path d="M309.362 148.878C309.379 149.024 309.448 149.159 309.557 149.256C309.667 149.354 309.808 149.408 309.955 149.408C310.101 149.408 310.243 149.354 310.352 149.256C310.462 149.159 310.531 149.024 310.547 148.878C310.531 148.732 310.462 148.598 310.352 148.5C310.243 148.402 310.101 148.348 309.955 148.348C309.808 148.348 309.667 148.402 309.557 148.5C309.448 148.598 309.379 148.732 309.362 148.878Z" fill="#F5F5F5"/>
<path d="M306.529 148.878C306.529 148.995 306.564 149.109 306.629 149.205C306.693 149.302 306.785 149.378 306.893 149.422C307 149.467 307.119 149.479 307.233 149.456C307.347 149.433 307.452 149.377 307.534 149.295C307.617 149.212 307.673 149.107 307.696 148.993C307.718 148.879 307.707 148.761 307.662 148.653C307.618 148.545 307.542 148.453 307.445 148.389C307.348 148.324 307.235 148.29 307.118 148.29C306.962 148.29 306.812 148.352 306.702 148.462C306.591 148.572 306.529 148.722 306.529 148.878Z" fill="white"/>
<path d="M303.688 148.878C303.688 148.995 303.723 149.109 303.788 149.205C303.852 149.302 303.944 149.378 304.052 149.422C304.16 149.467 304.278 149.479 304.392 149.456C304.506 149.433 304.611 149.377 304.694 149.295C304.776 149.212 304.832 149.107 304.855 148.993C304.877 148.879 304.866 148.761 304.821 148.653C304.777 148.545 304.701 148.453 304.604 148.389C304.508 148.324 304.394 148.29 304.277 148.29C304.121 148.29 303.971 148.352 303.861 148.462C303.751 148.572 303.688 148.722 303.688 148.878Z" fill="#F5F5F5"/>
<path d="M313.182 165.718H245.573V168.368H313.182V165.718Z" fill="#F5F5F5"/>
<path d="M242.276 173.851H245.573V160.235H242.276V173.851Z" fill="#E0E0E0"/>
<path d="M313.182 175.168H245.573V188.784H313.182V175.168Z" fill="#EBEBEB"/>
<path d="M309.362 133.945C309.361 134.063 309.395 134.179 309.459 134.278C309.524 134.377 309.616 134.455 309.725 134.501C309.834 134.547 309.954 134.56 310.07 134.538C310.186 134.516 310.293 134.459 310.377 134.376C310.462 134.293 310.519 134.187 310.543 134.071C310.566 133.955 310.555 133.835 310.51 133.726C310.465 133.616 310.389 133.523 310.29 133.457C310.192 133.391 310.077 133.356 309.959 133.356C309.881 133.355 309.803 133.37 309.731 133.399C309.659 133.428 309.593 133.471 309.537 133.526C309.482 133.581 309.438 133.646 309.408 133.718C309.378 133.79 309.362 133.867 309.362 133.945Z" fill="white"/>
<path d="M306.529 133.945C306.529 134.062 306.564 134.176 306.629 134.272C306.693 134.369 306.785 134.445 306.893 134.489C307 134.534 307.119 134.545 307.233 134.523C307.347 134.5 307.452 134.444 307.534 134.362C307.617 134.279 307.673 134.174 307.696 134.06C307.718 133.946 307.707 133.828 307.662 133.72C307.618 133.612 307.542 133.52 307.445 133.456C307.348 133.391 307.235 133.356 307.118 133.356C306.962 133.356 306.812 133.418 306.702 133.529C306.591 133.639 306.529 133.789 306.529 133.945Z" fill="white"/>
<path d="M303.688 133.945C303.688 134.062 303.723 134.176 303.788 134.272C303.852 134.369 303.944 134.445 304.052 134.489C304.16 134.534 304.278 134.545 304.392 134.523C304.506 134.5 304.611 134.444 304.694 134.362C304.776 134.279 304.832 134.174 304.855 134.06C304.877 133.946 304.866 133.828 304.821 133.72C304.777 133.612 304.701 133.52 304.604 133.456C304.508 133.391 304.394 133.356 304.277 133.356C304.121 133.356 303.971 133.418 303.861 133.529C303.751 133.639 303.688 133.789 303.688 133.945Z" fill="#F5F5F5"/>
<path d="M313.182 180.651H245.573V183.301H313.182V180.651Z" fill="#F5F5F5"/>
<path d="M242.276 188.784H245.573V175.168H242.276V188.784Z" fill="#E0E0E0"/>
<path d="M313.182 190.102H245.573V203.718H313.182V190.102Z" fill="#EBEBEB"/>
<path d="M309.362 119.012C309.361 119.13 309.395 119.246 309.459 119.345C309.524 119.444 309.616 119.521 309.725 119.568C309.834 119.614 309.954 119.627 310.07 119.605C310.186 119.582 310.293 119.526 310.377 119.443C310.462 119.36 310.519 119.254 310.543 119.138C310.566 119.022 310.555 118.902 310.51 118.793C310.465 118.683 310.389 118.59 310.29 118.524C310.192 118.458 310.077 118.423 309.959 118.423C309.881 118.422 309.803 118.436 309.731 118.466C309.659 118.495 309.593 118.538 309.537 118.593C309.482 118.648 309.438 118.713 309.408 118.785C309.378 118.857 309.362 118.934 309.362 119.012Z" fill="white"/>
<path d="M306.529 119.012C306.529 119.128 306.564 119.242 306.629 119.339C306.693 119.436 306.785 119.511 306.893 119.556C307 119.6 307.119 119.612 307.233 119.589C307.347 119.566 307.452 119.51 307.534 119.428C307.617 119.346 307.673 119.241 307.696 119.127C307.718 119.012 307.707 118.894 307.662 118.786C307.618 118.679 307.542 118.587 307.445 118.522C307.348 118.457 307.235 118.423 307.118 118.423C306.962 118.423 306.812 118.485 306.702 118.595C306.591 118.706 306.529 118.855 306.529 119.012Z" fill="#F5F5F5"/>
<path d="M303.688 119.012C303.688 119.128 303.723 119.242 303.788 119.339C303.852 119.436 303.944 119.511 304.052 119.556C304.16 119.6 304.278 119.612 304.392 119.589C304.506 119.566 304.611 119.51 304.694 119.428C304.776 119.346 304.832 119.241 304.855 119.127C304.877 119.012 304.866 118.894 304.821 118.786C304.777 118.679 304.701 118.587 304.604 118.522C304.508 118.457 304.394 118.423 304.277 118.423C304.121 118.423 303.971 118.485 303.861 118.595C303.751 118.706 303.688 118.855 303.688 119.012Z" fill="white"/>
<path d="M313.182 195.584H245.573V198.234H313.182V195.584Z" fill="#F5F5F5"/>
<path d="M242.276 203.71H245.573V190.094H242.276V203.71Z" fill="#E0E0E0"/>
<path d="M313.182 205.035H245.573V218.651H313.182V205.035Z" fill="#EBEBEB"/>
<path d="M309.362 104.078C309.361 104.196 309.395 104.312 309.459 104.411C309.524 104.51 309.616 104.588 309.725 104.634C309.834 104.68 309.954 104.693 310.07 104.671C310.186 104.649 310.293 104.593 310.377 104.51C310.462 104.427 310.519 104.32 310.543 104.205C310.566 104.089 310.555 103.968 310.51 103.859C310.465 103.75 310.389 103.656 310.29 103.59C310.192 103.524 310.077 103.489 309.959 103.489C309.881 103.488 309.803 103.503 309.731 103.532C309.659 103.561 309.593 103.604 309.537 103.659C309.482 103.714 309.438 103.779 309.408 103.851C309.378 103.923 309.362 104 309.362 104.078Z" fill="#F5F5F5"/>
<path d="M306.529 104.078C306.529 104.195 306.564 104.308 306.629 104.405C306.693 104.502 306.785 104.577 306.893 104.622C307 104.667 307.119 104.678 307.233 104.656C307.347 104.633 307.452 104.577 307.534 104.494C307.617 104.412 307.673 104.307 307.696 104.193C307.718 104.079 307.707 103.96 307.662 103.853C307.618 103.745 307.542 103.653 307.445 103.588C307.348 103.524 307.235 103.489 307.118 103.489C306.962 103.489 306.812 103.551 306.702 103.662C306.591 103.772 306.529 103.922 306.529 104.078Z" fill="white"/>
<path d="M303.688 104.078C303.688 104.195 303.723 104.308 303.788 104.405C303.852 104.502 303.944 104.577 304.052 104.622C304.16 104.667 304.278 104.678 304.392 104.656C304.506 104.633 304.611 104.577 304.694 104.494C304.776 104.412 304.832 104.307 304.855 104.193C304.877 104.079 304.866 103.96 304.821 103.853C304.777 103.745 304.701 103.653 304.604 103.588C304.508 103.524 304.394 103.489 304.277 103.489C304.121 103.489 303.971 103.551 303.861 103.662C303.751 103.772 303.688 103.922 303.688 104.078Z" fill="#F5F5F5"/>
<path d="M313.182 210.518H245.573V213.168H313.182V210.518Z" fill="#F5F5F5"/>
<path d="M242.276 218.644H245.573V205.028H242.276V218.644Z" fill="#E0E0E0"/>
<path d="M313.182 219.969H245.573V233.585H313.182V219.969Z" fill="#EBEBEB"/>
<path d="M309.362 89.1445C309.361 89.2627 309.395 89.3787 309.459 89.4777C309.524 89.5767 309.616 89.6543 309.725 89.7005C309.834 89.7468 309.954 89.7596 310.07 89.7375C310.186 89.7153 310.293 89.6591 310.377 89.576C310.462 89.493 310.519 89.3868 310.543 89.2709C310.566 89.1551 310.555 89.0348 310.51 88.9255C310.465 88.8161 310.389 88.7226 310.29 88.6567C310.192 88.5909 310.077 88.5557 309.959 88.5557C309.881 88.5547 309.803 88.5693 309.731 88.5984C309.659 88.6276 309.593 88.6708 309.537 88.7255C309.482 88.7803 309.438 88.8456 309.408 88.9175C309.378 88.9894 309.362 89.0666 309.362 89.1445Z" fill="#F5F5F5"/>
<path d="M306.529 89.1445C306.529 89.2609 306.564 89.3748 306.629 89.4716C306.693 89.5684 306.785 89.6439 306.893 89.6884C307 89.733 307.119 89.7447 307.233 89.722C307.347 89.6992 307.452 89.6432 307.534 89.5608C307.617 89.4785 307.673 89.3736 307.696 89.2593C307.718 89.1451 307.707 89.0267 307.662 88.9191C307.618 88.8116 307.542 88.7196 307.445 88.6549C307.348 88.5902 307.235 88.5557 307.118 88.5557C306.962 88.5557 306.812 88.6177 306.702 88.7281C306.591 88.8385 306.529 88.9883 306.529 89.1445Z" fill="#F5F5F5"/>
<path d="M303.688 89.1445C303.688 89.2609 303.723 89.3748 303.788 89.4716C303.852 89.5684 303.944 89.6439 304.052 89.6884C304.16 89.733 304.278 89.7447 304.392 89.722C304.506 89.6992 304.611 89.6432 304.694 89.5608C304.776 89.4785 304.832 89.3736 304.855 89.2593C304.877 89.1451 304.866 89.0267 304.821 88.9191C304.777 88.8116 304.701 88.7196 304.604 88.6549C304.508 88.5902 304.394 88.5557 304.277 88.5557C304.121 88.5557 303.971 88.6177 303.861 88.7281C303.751 88.8385 303.688 88.9883 303.688 89.1445Z" fill="white"/>
<path d="M313.182 225.452H245.573V228.101H313.182V225.452Z" fill="#F5F5F5"/>
<path d="M242.276 233.577H245.573V219.961H242.276V233.577Z" fill="#E0E0E0"/>
<path d="M195.489 73.9092H144.389L137.323 80.9674V238.184L144.389 245.243H195.489L202.548 238.184V80.9674L195.489 73.9092Z" fill="#E0E0E0"/>
<path d="M137.33 238.185L144.388 245.243H160.234L153.176 238.185H137.33Z" fill="#EBEBEB"/>
<path d="M137.33 80.9674L144.388 73.9092H160.234L153.176 80.9674H137.33Z" fill="#EBEBEB"/>
<path d="M223.612 73.9092H160.235L153.177 80.9674V238.184L160.235 245.243H223.612L230.678 238.184V80.9674L223.612 73.9092Z" fill="#EBEBEB"/>
<path d="M161.133 241.945L156.474 237.287V81.8654L161.133 77.2065H222.714L227.38 81.8654V237.287L222.714 241.945H161.133Z" fill="white"/>
<path d="M227.38 85.5674H159.771V99.1834H227.38V85.5674Z" fill="#EBEBEB"/>
<path d="M223.561 89.1445C223.561 89.028 223.595 88.9142 223.66 88.8173C223.724 88.7205 223.816 88.645 223.924 88.6005C224.032 88.5559 224.15 88.5443 224.264 88.567C224.378 88.5897 224.483 88.6458 224.566 88.7281C224.648 88.8105 224.704 88.9154 224.727 89.0296C224.75 89.1438 224.738 89.2622 224.693 89.3698C224.649 89.4774 224.573 89.5693 224.476 89.634C224.38 89.6987 224.266 89.7333 224.149 89.7333C223.993 89.7333 223.843 89.6712 223.733 89.5608C223.623 89.4504 223.561 89.3006 223.561 89.1445Z" fill="#F5F5F5"/>
<path d="M220.719 89.1445C220.717 89.026 220.751 88.9097 220.816 88.8105C220.881 88.7114 220.974 88.6338 221.083 88.5878C221.193 88.5418 221.313 88.5293 221.429 88.5521C221.546 88.5749 221.653 88.6318 221.736 88.7156C221.82 88.7994 221.877 88.9063 221.9 89.0227C221.923 89.139 221.91 89.2595 221.864 89.3687C221.818 89.4779 221.741 89.5709 221.642 89.6359C221.542 89.7008 221.426 89.7347 221.308 89.7333C221.23 89.7333 221.154 89.7181 221.082 89.6885C221.011 89.6589 220.946 89.6155 220.891 89.5608C220.837 89.5062 220.793 89.4413 220.764 89.3698C220.734 89.2984 220.719 89.2218 220.719 89.1445Z" fill="white"/>
<path d="M217.856 89.1445C217.854 89.026 217.888 88.9097 217.953 88.8105C218.018 88.7114 218.111 88.6338 218.22 88.5878C218.329 88.5418 218.45 88.5293 218.566 88.5521C218.682 88.5749 218.789 88.6318 218.873 88.7156C218.957 88.7994 219.014 88.9063 219.037 89.0227C219.059 89.139 219.047 89.2595 219.001 89.3687C218.955 89.4779 218.877 89.5709 218.778 89.6359C218.679 89.7008 218.563 89.7347 218.444 89.7333C218.288 89.7333 218.138 89.6713 218.028 89.5608C217.918 89.4504 217.856 89.3006 217.856 89.1445Z" fill="#F5F5F5"/>
<path d="M227.38 91.0508H159.771V93.7004H227.38V91.0508Z" fill="#F5F5F5"/>
<path d="M156.466 99.1836H159.764V85.5676H156.466V99.1836Z" fill="#E0E0E0"/>
<path d="M227.38 100.501H159.771V114.117H227.38V100.501Z" fill="#EBEBEB"/>
<path d="M223.561 104.078C223.561 103.962 223.595 103.848 223.66 103.751C223.724 103.654 223.816 103.579 223.924 103.534C224.032 103.49 224.15 103.478 224.264 103.501C224.378 103.523 224.483 103.579 224.566 103.662C224.648 103.744 224.704 103.849 224.727 103.963C224.75 104.077 224.738 104.196 224.693 104.303C224.649 104.411 224.573 104.503 224.476 104.568C224.38 104.632 224.266 104.667 224.149 104.667C223.993 104.667 223.843 104.605 223.733 104.494C223.623 104.384 223.561 104.234 223.561 104.078Z" fill="#F5F5F5"/>
<path d="M220.719 104.078C220.717 103.96 220.751 103.843 220.816 103.744C220.881 103.645 220.974 103.567 221.083 103.521C221.193 103.475 221.313 103.463 221.429 103.486C221.546 103.508 221.653 103.565 221.736 103.649C221.82 103.733 221.877 103.84 221.9 103.956C221.923 104.073 221.91 104.193 221.864 104.302C221.818 104.412 221.741 104.505 221.642 104.569C221.542 104.634 221.426 104.668 221.308 104.667C221.23 104.667 221.154 104.652 221.082 104.622C221.011 104.592 220.946 104.549 220.891 104.494C220.837 104.44 220.793 104.375 220.764 104.303C220.734 104.232 220.719 104.155 220.719 104.078Z" fill="white"/>
<path d="M217.856 104.078C217.854 103.96 217.888 103.843 217.953 103.744C218.018 103.645 218.111 103.567 218.22 103.521C218.329 103.475 218.45 103.463 218.566 103.486C218.682 103.508 218.789 103.565 218.873 103.649C218.957 103.733 219.014 103.84 219.037 103.956C219.059 104.073 219.047 104.193 219.001 104.302C218.955 104.412 218.877 104.505 218.778 104.569C218.679 104.634 218.563 104.668 218.444 104.667C218.288 104.667 218.138 104.605 218.028 104.494C217.918 104.384 217.856 104.234 217.856 104.078Z" fill="white"/>
<path d="M227.38 105.984H159.771V108.634H227.38V105.984Z" fill="#F5F5F5"/>
<path d="M156.466 114.117H159.764V100.501H156.466V114.117Z" fill="#E0E0E0"/>
<path d="M227.38 115.435H159.771V129.051H227.38V115.435Z" fill="#EBEBEB"/>
<path d="M223.561 119.012C223.561 118.895 223.595 118.781 223.66 118.685C223.724 118.588 223.816 118.512 223.924 118.468C224.032 118.423 224.15 118.411 224.264 118.434C224.378 118.457 224.483 118.513 224.566 118.595C224.648 118.678 224.704 118.783 224.727 118.897C224.75 119.011 224.738 119.129 224.693 119.237C224.649 119.345 224.573 119.437 224.476 119.501C224.38 119.566 224.266 119.6 224.149 119.6C223.993 119.6 223.843 119.538 223.733 119.428C223.623 119.318 223.561 119.168 223.561 119.012Z" fill="#F5F5F5"/>
<path d="M220.719 119.011C220.717 118.893 220.751 118.776 220.816 118.677C220.881 118.578 220.974 118.501 221.083 118.455C221.193 118.408 221.313 118.396 221.429 118.419C221.546 118.442 221.653 118.499 221.736 118.582C221.82 118.666 221.877 118.773 221.9 118.889C221.923 119.006 221.91 119.126 221.864 119.235C221.818 119.345 221.741 119.438 221.642 119.503C221.542 119.568 221.426 119.601 221.308 119.6C221.23 119.6 221.154 119.585 221.082 119.555C221.011 119.526 220.946 119.482 220.891 119.428C220.837 119.373 220.793 119.308 220.764 119.237C220.734 119.165 220.719 119.089 220.719 119.011Z" fill="#F5F5F5"/>
<path d="M217.856 119.011C217.854 118.893 217.888 118.776 217.953 118.677C218.018 118.578 218.111 118.501 218.22 118.455C218.329 118.408 218.45 118.396 218.566 118.419C218.682 118.442 218.789 118.499 218.873 118.582C218.957 118.666 219.014 118.773 219.037 118.889C219.059 119.006 219.047 119.126 219.001 119.235C218.955 119.345 218.877 119.438 218.778 119.503C218.679 119.568 218.563 119.601 218.444 119.6C218.288 119.6 218.138 119.538 218.028 119.428C217.918 119.317 217.856 119.167 217.856 119.011Z" fill="#F5F5F5"/>
<path d="M227.38 120.918H159.771V123.568H227.38V120.918Z" fill="#F5F5F5"/>
<path d="M156.466 129.05H159.764V115.434H156.466V129.05Z" fill="#E0E0E0"/>
<path d="M227.38 130.368H159.771V143.984H227.38V130.368Z" fill="#EBEBEB"/>
<path d="M223.561 133.945C223.561 133.829 223.595 133.715 223.66 133.618C223.724 133.521 223.816 133.446 223.924 133.401C224.032 133.357 224.15 133.345 224.264 133.368C224.378 133.39 224.483 133.447 224.566 133.529C224.648 133.611 224.704 133.716 224.727 133.83C224.75 133.945 224.738 134.063 224.693 134.171C224.649 134.278 224.573 134.37 224.476 134.435C224.38 134.5 224.266 134.534 224.149 134.534C223.993 134.534 223.843 134.472 223.733 134.362C223.623 134.251 223.561 134.101 223.561 133.945Z" fill="white"/>
<path d="M220.719 133.945C220.717 133.826 220.751 133.71 220.816 133.611C220.881 133.512 220.974 133.434 221.083 133.388C221.193 133.342 221.313 133.33 221.429 133.352C221.546 133.375 221.653 133.432 221.736 133.516C221.82 133.6 221.877 133.707 221.9 133.823C221.923 133.939 221.91 134.06 221.864 134.169C221.818 134.278 221.741 134.371 221.642 134.436C221.542 134.501 221.426 134.535 221.308 134.534C221.23 134.534 221.154 134.518 221.082 134.489C221.011 134.459 220.946 134.416 220.891 134.361C220.837 134.306 220.793 134.242 220.764 134.17C220.734 134.099 220.719 134.022 220.719 133.945Z" fill="white"/>
<path d="M217.856 133.945C217.854 133.826 217.888 133.71 217.953 133.611C218.018 133.512 218.111 133.434 218.22 133.388C218.329 133.342 218.45 133.33 218.566 133.352C218.682 133.375 218.789 133.432 218.873 133.516C218.957 133.6 219.014 133.707 219.037 133.823C219.059 133.939 219.047 134.06 219.001 134.169C218.955 134.278 218.877 134.371 218.778 134.436C218.679 134.501 218.563 134.535 218.444 134.534C218.288 134.534 218.138 134.472 218.028 134.361C217.918 134.251 217.856 134.101 217.856 133.945Z" fill="#F5F5F5"/>
<path d="M227.38 135.851H159.771V138.501H227.38V135.851Z" fill="#F5F5F5"/>
<path d="M156.466 143.984H159.764V130.368H156.466V143.984Z" fill="#E0E0E0"/>
<path d="M227.38 145.301H159.771V158.917H227.38V145.301Z" fill="#EBEBEB"/>
<path d="M223.561 148.878C223.561 148.762 223.595 148.648 223.66 148.551C223.724 148.454 223.816 148.379 223.924 148.334C224.032 148.29 224.15 148.278 224.264 148.301C224.378 148.324 224.483 148.38 224.566 148.462C224.648 148.544 224.704 148.649 224.727 148.763C224.75 148.878 224.738 148.996 224.693 149.104C224.649 149.211 224.573 149.303 224.476 149.368C224.38 149.433 224.266 149.467 224.149 149.467C223.993 149.467 223.843 149.405 223.733 149.295C223.623 149.184 223.561 149.035 223.561 148.878Z" fill="white"/>
<path d="M220.719 148.878C220.735 148.732 220.804 148.598 220.914 148.5C221.023 148.402 221.165 148.348 221.311 148.348C221.458 148.348 221.599 148.402 221.709 148.5C221.818 148.598 221.887 148.732 221.904 148.878C221.887 149.024 221.818 149.159 221.709 149.256C221.599 149.354 221.458 149.408 221.311 149.408C221.165 149.408 221.023 149.354 220.914 149.256C220.804 149.159 220.735 149.024 220.719 148.878Z" fill="white"/>
<path d="M217.856 148.878C217.873 148.732 217.942 148.598 218.051 148.5C218.161 148.402 218.302 148.348 218.449 148.348C218.596 148.348 218.737 148.402 218.846 148.5C218.956 148.598 219.025 148.732 219.041 148.878C219.025 149.024 218.956 149.159 218.846 149.256C218.737 149.354 218.596 149.408 218.449 149.408C218.302 149.408 218.161 149.354 218.051 149.256C217.942 149.159 217.873 149.024 217.856 148.878Z" fill="white"/>
<path d="M227.38 150.785H159.771V153.434H227.38V150.785Z" fill="#F5F5F5"/>
<path d="M156.466 158.917H159.764V145.301H156.466V158.917Z" fill="#E0E0E0"/>
<path d="M227.38 160.235H159.771V173.851H227.38V160.235Z" fill="#EBEBEB"/>
<path d="M223.561 163.811C223.561 163.695 223.595 163.581 223.66 163.484C223.724 163.388 223.816 163.312 223.924 163.267C224.032 163.223 224.15 163.211 224.264 163.234C224.378 163.257 224.483 163.313 224.566 163.395C224.648 163.477 224.704 163.582 224.727 163.697C224.75 163.811 224.738 163.929 224.693 164.037C224.649 164.144 224.573 164.236 224.476 164.301C224.38 164.366 224.266 164.4 224.149 164.4C223.993 164.4 223.843 164.338 223.733 164.228C223.623 164.117 223.561 163.968 223.561 163.811Z" fill="#F5F5F5"/>
<path d="M220.719 163.811C220.717 163.693 220.751 163.577 220.816 163.478C220.881 163.378 220.974 163.301 221.083 163.255C221.193 163.209 221.313 163.196 221.429 163.219C221.546 163.242 221.653 163.299 221.736 163.383C221.82 163.466 221.877 163.573 221.9 163.69C221.923 163.806 221.91 163.926 221.864 164.036C221.818 164.145 221.741 164.238 221.642 164.303C221.542 164.368 221.426 164.402 221.308 164.4C221.23 164.4 221.154 164.385 221.082 164.355C221.011 164.326 220.946 164.283 220.891 164.228C220.837 164.173 220.793 164.108 220.764 164.037C220.734 163.965 220.719 163.889 220.719 163.811Z" fill="white"/>
<path d="M217.856 163.811C217.854 163.693 217.888 163.577 217.953 163.478C218.018 163.378 218.111 163.301 218.22 163.255C218.329 163.209 218.45 163.196 218.566 163.219C218.682 163.242 218.789 163.299 218.873 163.383C218.957 163.466 219.014 163.573 219.037 163.69C219.059 163.806 219.047 163.926 219.001 164.036C218.955 164.145 218.877 164.238 218.778 164.303C218.679 164.368 218.563 164.402 218.444 164.4C218.288 164.4 218.138 164.338 218.028 164.228C217.918 164.117 217.856 163.968 217.856 163.811Z" fill="#F5F5F5"/>
<path d="M227.38 165.718H159.771V168.368H227.38V165.718Z" fill="#F5F5F5"/>
<path d="M156.466 173.851H159.764V160.235H156.466V173.851Z" fill="#E0E0E0"/>
<path d="M227.38 175.168H159.771V188.784H227.38V175.168Z" fill="#EBEBEB"/>
<path d="M223.561 178.745C223.561 178.629 223.595 178.515 223.66 178.418C223.724 178.321 223.816 178.246 223.924 178.201C224.032 178.156 224.15 178.145 224.264 178.168C224.378 178.19 224.483 178.246 224.566 178.329C224.648 178.411 224.704 178.516 224.727 178.63C224.75 178.744 224.738 178.863 224.693 178.97C224.649 179.078 224.573 179.17 224.476 179.235C224.38 179.299 224.266 179.334 224.149 179.334C223.993 179.334 223.843 179.272 223.733 179.161C223.623 179.051 223.561 178.901 223.561 178.745Z" fill="white"/>
<path d="M220.719 178.745C220.717 178.627 220.751 178.51 220.816 178.411C220.881 178.312 220.974 178.234 221.083 178.188C221.193 178.142 221.313 178.13 221.429 178.153C221.546 178.175 221.653 178.232 221.736 178.316C221.82 178.4 221.877 178.507 221.9 178.623C221.923 178.74 221.91 178.86 221.864 178.969C221.818 179.078 221.741 179.172 221.642 179.236C221.542 179.301 221.426 179.335 221.308 179.334C221.23 179.334 221.154 179.319 221.082 179.289C221.011 179.259 220.946 179.216 220.891 179.161C220.837 179.107 220.793 179.042 220.764 178.97C220.734 178.899 220.719 178.822 220.719 178.745Z" fill="white"/>
<path d="M217.856 178.745C217.854 178.627 217.888 178.51 217.953 178.411C218.018 178.312 218.111 178.234 218.22 178.188C218.329 178.142 218.45 178.13 218.566 178.153C218.682 178.175 218.789 178.232 218.873 178.316C218.957 178.4 219.014 178.507 219.037 178.623C219.059 178.74 219.047 178.86 219.001 178.969C218.955 179.078 218.877 179.172 218.778 179.236C218.679 179.301 218.563 179.335 218.444 179.334C218.288 179.334 218.138 179.272 218.028 179.161C217.918 179.051 217.856 178.901 217.856 178.745Z" fill="#F5F5F5"/>
<path d="M227.38 180.651H159.771V183.301H227.38V180.651Z" fill="#F5F5F5"/>
<path d="M156.466 188.784H159.764V175.168H156.466V188.784Z" fill="#E0E0E0"/>
<path d="M227.38 190.102H159.771V203.718H227.38V190.102Z" fill="#EBEBEB"/>
<path d="M223.561 193.679C223.561 193.562 223.595 193.448 223.66 193.352C223.724 193.255 223.816 193.179 223.924 193.135C224.032 193.09 224.15 193.078 224.264 193.101C224.378 193.124 224.483 193.18 224.566 193.262C224.648 193.345 224.704 193.45 224.727 193.564C224.75 193.678 224.738 193.796 224.693 193.904C224.649 194.012 224.573 194.104 224.476 194.168C224.38 194.233 224.266 194.267 224.149 194.267C223.993 194.267 223.843 194.205 223.733 194.095C223.623 193.985 223.561 193.835 223.561 193.679Z" fill="white"/>
<path d="M220.719 193.679C220.717 193.56 220.751 193.444 220.816 193.345C220.881 193.246 220.974 193.168 221.083 193.122C221.193 193.076 221.313 193.064 221.429 193.086C221.546 193.109 221.653 193.166 221.736 193.25C221.82 193.334 221.877 193.441 221.9 193.557C221.923 193.673 221.91 193.794 221.864 193.903C221.818 194.012 221.741 194.105 221.642 194.17C221.542 194.235 221.426 194.269 221.308 194.267C221.23 194.267 221.154 194.252 221.082 194.223C221.011 194.193 220.946 194.15 220.891 194.095C220.837 194.04 220.793 193.975 220.764 193.904C220.734 193.833 220.719 193.756 220.719 193.679Z" fill="#F5F5F5"/>
<path d="M217.856 193.679C217.854 193.56 217.888 193.444 217.953 193.345C218.018 193.246 218.111 193.168 218.22 193.122C218.329 193.076 218.45 193.064 218.566 193.086C218.682 193.109 218.789 193.166 218.873 193.25C218.957 193.334 219.014 193.441 219.037 193.557C219.059 193.673 219.047 193.794 219.001 193.903C218.955 194.012 218.877 194.105 218.778 194.17C218.679 194.235 218.563 194.269 218.444 194.267C218.288 194.267 218.138 194.205 218.028 194.095C217.918 193.985 217.856 193.835 217.856 193.679Z" fill="white"/>
<path d="M227.38 195.584H159.771V198.234H227.38V195.584Z" fill="#F5F5F5"/>
<path d="M156.466 203.71H159.764V190.094H156.466V203.71Z" fill="#E0E0E0"/>
<path d="M227.38 205.035H159.771V218.651H227.38V205.035Z" fill="#EBEBEB"/>
<path d="M223.561 208.604C223.562 208.488 223.598 208.375 223.663 208.279C223.729 208.183 223.821 208.109 223.929 208.066C224.037 208.022 224.155 208.012 224.269 208.035C224.382 208.059 224.487 208.115 224.568 208.198C224.65 208.281 224.705 208.386 224.727 208.5C224.749 208.614 224.737 208.732 224.693 208.839C224.648 208.946 224.572 209.037 224.476 209.102C224.379 209.166 224.266 209.201 224.149 209.201C224.071 209.201 223.994 209.185 223.922 209.155C223.85 209.125 223.785 209.081 223.73 209.026C223.676 208.97 223.632 208.904 223.603 208.832C223.574 208.76 223.56 208.682 223.561 208.604Z" fill="#F5F5F5"/>
<path d="M220.719 208.605C220.719 208.487 220.754 208.371 220.82 208.273C220.886 208.175 220.979 208.098 221.089 208.053C221.198 208.009 221.318 207.997 221.434 208.021C221.55 208.044 221.656 208.102 221.739 208.186C221.822 208.27 221.878 208.377 221.901 208.493C221.923 208.609 221.91 208.729 221.864 208.838C221.817 208.947 221.74 209.04 221.641 209.104C221.542 209.169 221.426 209.203 221.308 209.201C221.23 209.201 221.152 209.186 221.081 209.156C221.009 209.125 220.943 209.081 220.889 209.026C220.834 208.971 220.791 208.905 220.761 208.832C220.732 208.76 220.718 208.683 220.719 208.605Z" fill="white"/>
<path d="M217.856 208.605C217.856 208.487 217.891 208.371 217.957 208.273C218.022 208.175 218.116 208.098 218.225 208.053C218.335 208.009 218.455 207.997 218.571 208.021C218.687 208.044 218.793 208.102 218.876 208.186C218.959 208.27 219.015 208.377 219.037 208.493C219.059 208.609 219.047 208.729 219 208.838C218.954 208.947 218.877 209.04 218.778 209.104C218.679 209.169 218.563 209.203 218.444 209.201C218.366 209.201 218.289 209.186 218.217 209.156C218.145 209.125 218.08 209.081 218.025 209.026C217.971 208.971 217.927 208.905 217.898 208.832C217.869 208.76 217.855 208.683 217.856 208.605Z" fill="#F5F5F5"/>
<path d="M227.38 210.518H159.771V213.168H227.38V210.518Z" fill="#F5F5F5"/>
<path d="M156.466 218.644H159.764V205.028H156.466V218.644Z" fill="#E0E0E0"/>
<path d="M227.38 219.969H159.771V233.585H227.38V219.969Z" fill="#EBEBEB"/>
<path d="M223.561 223.538C223.562 223.422 223.598 223.309 223.663 223.213C223.729 223.117 223.821 223.043 223.929 222.999C224.037 222.956 224.155 222.945 224.269 222.969C224.382 222.992 224.487 223.049 224.568 223.132C224.65 223.214 224.705 223.319 224.727 223.433C224.749 223.547 224.737 223.665 224.693 223.772C224.648 223.88 224.572 223.971 224.476 224.035C224.379 224.1 224.266 224.134 224.149 224.134C224.071 224.134 223.994 224.119 223.922 224.089C223.85 224.059 223.785 224.015 223.73 223.959C223.676 223.904 223.632 223.838 223.603 223.766C223.574 223.693 223.56 223.616 223.561 223.538Z" fill="#F5F5F5"/>
<path d="M220.719 223.538C220.719 223.42 220.754 223.304 220.82 223.206C220.886 223.108 220.979 223.031 221.089 222.987C221.198 222.942 221.318 222.93 221.434 222.954C221.55 222.978 221.656 223.035 221.739 223.119C221.822 223.203 221.878 223.31 221.901 223.426C221.923 223.542 221.91 223.663 221.864 223.771C221.817 223.88 221.74 223.973 221.641 224.037C221.542 224.102 221.426 224.136 221.308 224.134C221.23 224.134 221.152 224.119 221.081 224.089C221.009 224.059 220.943 224.015 220.889 223.959C220.834 223.904 220.791 223.838 220.761 223.766C220.732 223.693 220.718 223.616 220.719 223.538Z" fill="#F5F5F5"/>
<path d="M217.856 223.538C217.856 223.42 217.891 223.304 217.957 223.206C218.022 223.108 218.116 223.031 218.225 222.987C218.335 222.942 218.455 222.93 218.571 222.954C218.687 222.978 218.793 223.035 218.876 223.119C218.959 223.203 219.015 223.31 219.037 223.426C219.059 223.542 219.047 223.663 219 223.771C218.954 223.88 218.877 223.973 218.778 224.037C218.679 224.102 218.563 224.136 218.444 224.134C218.366 224.134 218.289 224.119 218.217 224.089C218.145 224.059 218.08 224.015 218.025 223.959C217.971 223.904 217.927 223.838 217.898 223.766C217.869 223.693 217.855 223.616 217.856 223.538Z" fill="white"/>
<path d="M227.38 225.452H159.771V228.101H227.38V225.452Z" fill="#F5F5F5"/>
<path d="M156.466 233.577H159.764V219.961H156.466V233.577Z" fill="#E0E0E0"/>
<path d="M109.665 73.9092H58.5787L51.5205 80.9674V238.184L58.5787 245.243H109.665L116.73 238.184V80.9674L109.665 73.9092Z" fill="#E0E0E0"/>
<path d="M51.5205 238.185L58.5787 245.243H74.4322L67.3666 238.185H51.5205Z" fill="#EBEBEB"/>
<path d="M51.5205 80.9674L58.5787 73.9092H74.4322L67.3666 80.9674H51.5205Z" fill="#EBEBEB"/>
<path d="M137.809 73.9092H74.4245L67.3662 80.9674V238.184L74.4245 245.243H137.809L144.867 238.184V80.9674L137.809 73.9092Z" fill="#EBEBEB"/>
<path d="M75.3293 241.945L70.6631 237.287V81.8654L75.3293 77.2065H136.91L141.569 81.8654V237.287L136.91 241.945H75.3293Z" fill="white"/>
<path d="M141.57 85.5674H73.9609V99.1834H141.57V85.5674Z" fill="#EBEBEB"/>
<path d="M137.75 223.538C137.749 223.656 137.782 223.772 137.847 223.871C137.912 223.97 138.004 224.048 138.113 224.094C138.222 224.14 138.342 224.153 138.458 224.131C138.574 224.109 138.681 224.053 138.765 223.97C138.849 223.886 138.907 223.78 138.93 223.664C138.954 223.549 138.943 223.428 138.898 223.319C138.853 223.21 138.776 223.116 138.678 223.05C138.58 222.984 138.464 222.949 138.346 222.949C138.189 222.949 138.039 223.011 137.927 223.121C137.816 223.231 137.752 223.381 137.75 223.538Z" fill="#F5F5F5"/>
<path d="M134.917 223.538C134.917 223.654 134.952 223.768 135.016 223.865C135.081 223.962 135.173 224.037 135.28 224.082C135.388 224.127 135.506 224.138 135.621 224.116C135.735 224.093 135.84 224.037 135.922 223.954C136.004 223.872 136.061 223.767 136.083 223.653C136.106 223.539 136.094 223.42 136.05 223.313C136.005 223.205 135.93 223.113 135.833 223.048C135.736 222.984 135.622 222.949 135.506 222.949C135.428 222.949 135.352 222.964 135.28 222.994C135.209 223.024 135.144 223.067 135.089 223.122C135.035 223.176 134.991 223.241 134.962 223.313C134.932 223.384 134.917 223.461 134.917 223.538Z" fill="white"/>
<path d="M132.075 223.538C132.075 223.654 132.11 223.768 132.174 223.865C132.239 223.962 132.331 224.037 132.439 224.082C132.546 224.127 132.665 224.138 132.779 224.116C132.893 224.093 132.998 224.037 133.08 223.954C133.163 223.872 133.219 223.767 133.241 223.653C133.264 223.539 133.253 223.42 133.208 223.313C133.163 223.205 133.088 223.113 132.991 223.048C132.894 222.984 132.78 222.949 132.664 222.949C132.508 222.949 132.358 223.011 132.248 223.122C132.137 223.232 132.075 223.382 132.075 223.538Z" fill="#F5F5F5"/>
<path d="M141.57 91.0508H73.9609V93.7004H141.57V91.0508Z" fill="#F5F5F5"/>
<path d="M70.6637 99.1836H73.9609V85.5676H70.6637V99.1836Z" fill="#E0E0E0"/>
<path d="M141.57 100.501H73.9609V114.117H141.57V100.501Z" fill="#EBEBEB"/>
<path d="M137.75 208.604C137.749 208.723 137.782 208.839 137.847 208.938C137.912 209.037 138.004 209.114 138.113 209.16C138.222 209.207 138.342 209.22 138.458 209.197C138.574 209.175 138.681 209.119 138.765 209.036C138.849 208.953 138.907 208.847 138.93 208.731C138.954 208.615 138.943 208.495 138.898 208.385C138.853 208.276 138.776 208.182 138.678 208.117C138.58 208.051 138.464 208.016 138.346 208.016C138.189 208.016 138.039 208.077 137.927 208.188C137.816 208.298 137.752 208.448 137.75 208.604Z" fill="#F5F5F5"/>
<path d="M134.917 208.604C134.917 208.721 134.952 208.835 135.016 208.932C135.081 209.028 135.173 209.104 135.28 209.148C135.388 209.193 135.506 209.205 135.621 209.182C135.735 209.159 135.84 209.103 135.922 209.021C136.004 208.938 136.061 208.833 136.083 208.719C136.106 208.605 136.094 208.487 136.05 208.379C136.005 208.271 135.93 208.18 135.833 208.115C135.736 208.05 135.622 208.016 135.506 208.016C135.428 208.016 135.352 208.031 135.28 208.06C135.209 208.09 135.144 208.133 135.089 208.188C135.035 208.243 134.991 208.308 134.962 208.379C134.932 208.451 134.917 208.527 134.917 208.604Z" fill="white"/>
<path d="M132.075 208.604C132.075 208.721 132.11 208.835 132.174 208.932C132.239 209.028 132.331 209.104 132.439 209.148C132.546 209.193 132.665 209.205 132.779 209.182C132.893 209.159 132.998 209.103 133.08 209.021C133.163 208.938 133.219 208.833 133.241 208.719C133.264 208.605 133.253 208.487 133.208 208.379C133.163 208.271 133.088 208.18 132.991 208.115C132.894 208.05 132.78 208.016 132.664 208.016C132.508 208.016 132.358 208.078 132.248 208.188C132.137 208.299 132.075 208.448 132.075 208.604Z" fill="white"/>
<path d="M141.57 105.984H73.9609V108.634H141.57V105.984Z" fill="#F5F5F5"/>
<path d="M70.6637 114.117H73.9609V100.501H70.6637V114.117Z" fill="#E0E0E0"/>
<path d="M141.57 115.435H73.9609V129.051H141.57V115.435Z" fill="#EBEBEB"/>
<path d="M137.75 193.679C137.75 193.797 137.785 193.912 137.851 194.01C137.916 194.108 138.009 194.184 138.118 194.23C138.227 194.275 138.347 194.286 138.463 194.263C138.578 194.24 138.684 194.184 138.768 194.1C138.851 194.017 138.908 193.911 138.931 193.795C138.954 193.679 138.942 193.56 138.897 193.451C138.852 193.342 138.775 193.249 138.677 193.183C138.579 193.118 138.464 193.083 138.346 193.083C138.268 193.082 138.19 193.096 138.117 193.126C138.044 193.156 137.978 193.199 137.922 193.255C137.867 193.311 137.823 193.377 137.793 193.449C137.764 193.522 137.749 193.6 137.75 193.679Z" fill="#F5F5F5"/>
<path d="M134.917 193.679C134.917 193.835 134.979 193.985 135.089 194.095C135.2 194.205 135.35 194.267 135.506 194.267C135.662 194.267 135.812 194.205 135.922 194.095C136.033 193.985 136.095 193.835 136.095 193.679C136.095 193.522 136.033 193.373 135.922 193.262C135.812 193.152 135.662 193.09 135.506 193.09C135.35 193.09 135.2 193.152 135.089 193.262C134.979 193.373 134.917 193.522 134.917 193.679Z" fill="#F5F5F5"/>
<path d="M132.075 193.679C132.077 193.795 132.112 193.908 132.178 194.004C132.244 194.1 132.336 194.174 132.444 194.217C132.551 194.261 132.67 194.271 132.783 194.248C132.897 194.224 133.001 194.168 133.083 194.085C133.165 194.002 133.22 193.898 133.242 193.784C133.264 193.669 133.252 193.551 133.207 193.444C133.163 193.337 133.087 193.246 132.99 193.181C132.894 193.117 132.78 193.083 132.664 193.083C132.586 193.083 132.509 193.098 132.437 193.128C132.365 193.158 132.3 193.202 132.245 193.258C132.19 193.313 132.147 193.379 132.118 193.451C132.089 193.523 132.074 193.601 132.075 193.679Z" fill="#F5F5F5"/>
<path d="M141.57 120.918H73.9609V123.568H141.57V120.918Z" fill="#F5F5F5"/>
<path d="M70.6637 129.05H73.9609V115.434H70.6637V129.05Z" fill="#E0E0E0"/>
<path d="M141.57 130.368H73.9609V143.984H141.57V130.368Z" fill="#EBEBEB"/>
<path d="M137.75 178.745C137.75 178.863 137.785 178.978 137.851 179.076C137.916 179.174 138.009 179.251 138.118 179.296C138.227 179.341 138.347 179.353 138.463 179.33C138.578 179.307 138.684 179.25 138.768 179.167C138.851 179.083 138.908 178.977 138.931 178.861C138.954 178.746 138.942 178.626 138.897 178.517C138.852 178.408 138.775 178.315 138.677 178.249C138.579 178.184 138.464 178.149 138.346 178.149C138.268 178.148 138.19 178.163 138.117 178.192C138.044 178.222 137.978 178.266 137.922 178.321C137.867 178.377 137.823 178.443 137.793 178.516C137.764 178.589 137.749 178.667 137.75 178.745Z" fill="white"/>
<path d="M134.917 178.745C134.917 178.901 134.979 179.051 135.089 179.161C135.2 179.272 135.35 179.334 135.506 179.334C135.662 179.334 135.812 179.272 135.922 179.161C136.033 179.051 136.095 178.901 136.095 178.745C136.095 178.589 136.033 178.439 135.922 178.329C135.812 178.218 135.662 178.156 135.506 178.156C135.35 178.156 135.2 178.218 135.089 178.329C134.979 178.439 134.917 178.589 134.917 178.745Z" fill="white"/>
<path d="M132.075 178.745C132.077 178.861 132.112 178.974 132.178 179.07C132.244 179.166 132.336 179.24 132.444 179.284C132.551 179.327 132.67 179.338 132.783 179.314C132.897 179.291 133.001 179.234 133.083 179.151C133.165 179.069 133.22 178.964 133.242 178.85C133.264 178.736 133.252 178.618 133.207 178.511C133.163 178.404 133.087 178.312 132.99 178.248C132.894 178.183 132.78 178.149 132.664 178.149C132.586 178.149 132.509 178.164 132.437 178.194C132.365 178.225 132.3 178.269 132.245 178.324C132.19 178.379 132.147 178.445 132.118 178.518C132.089 178.59 132.074 178.667 132.075 178.745Z" fill="#F5F5F5"/>
<path d="M141.57 135.851H73.9609V138.501H141.57V135.851Z" fill="#F5F5F5"/>
<path d="M70.6637 143.984H73.9609V130.368H70.6637V143.984Z" fill="#E0E0E0"/>
<path d="M141.57 145.301H73.9609V158.917H141.57V145.301Z" fill="#EBEBEB"/>
<path d="M137.749 163.812C137.742 163.93 137.77 164.048 137.83 164.15C137.89 164.252 137.979 164.334 138.086 164.385C138.193 164.437 138.312 164.455 138.43 164.438C138.547 164.421 138.656 164.37 138.744 164.29C138.832 164.211 138.894 164.107 138.923 163.992C138.951 163.877 138.945 163.756 138.905 163.644C138.864 163.533 138.791 163.436 138.696 163.366C138.6 163.297 138.486 163.257 138.367 163.252C138.29 163.248 138.213 163.26 138.14 163.286C138.067 163.312 138 163.352 137.942 163.404C137.885 163.456 137.838 163.518 137.805 163.588C137.772 163.658 137.753 163.734 137.749 163.812Z" fill="white"/>
<path d="M134.917 163.811C134.917 163.968 134.979 164.117 135.089 164.228C135.2 164.338 135.35 164.4 135.506 164.4C135.662 164.4 135.812 164.338 135.922 164.228C136.033 164.117 136.095 163.968 136.095 163.811C136.095 163.655 136.033 163.506 135.922 163.395C135.812 163.285 135.662 163.223 135.506 163.223C135.35 163.223 135.2 163.285 135.089 163.395C134.979 163.506 134.917 163.655 134.917 163.811Z" fill="white"/>
<path d="M132.075 163.812C132.077 163.928 132.112 164.041 132.178 164.137C132.244 164.233 132.336 164.307 132.444 164.351C132.551 164.394 132.67 164.405 132.783 164.381C132.897 164.358 133.001 164.301 133.083 164.218C133.165 164.136 133.22 164.031 133.242 163.917C133.264 163.803 133.252 163.685 133.207 163.578C133.163 163.47 133.087 163.379 132.99 163.315C132.894 163.25 132.78 163.216 132.664 163.216C132.586 163.216 132.509 163.231 132.437 163.261C132.365 163.291 132.3 163.335 132.245 163.391C132.19 163.446 132.147 163.512 132.118 163.584C132.089 163.657 132.074 163.734 132.075 163.812Z" fill="white"/>
<path d="M141.57 150.785H73.9609V153.434H141.57V150.785Z" fill="#F5F5F5"/>
<path d="M70.6637 158.917H73.9609V145.301H70.6637V158.917Z" fill="#E0E0E0"/>
<path d="M141.57 160.235H73.9609V173.851H141.57V160.235Z" fill="#EBEBEB"/>
<path d="M137.75 148.878C137.766 149.024 137.836 149.159 137.945 149.256C138.054 149.354 138.196 149.408 138.342 149.408C138.489 149.408 138.631 149.354 138.74 149.256C138.849 149.159 138.919 149.024 138.935 148.878C138.919 148.732 138.849 148.598 138.74 148.5C138.631 148.402 138.489 148.348 138.342 148.348C138.196 148.348 138.054 148.402 137.945 148.5C137.836 148.598 137.766 148.732 137.75 148.878Z" fill="#F5F5F5"/>
<path d="M134.917 148.878C134.917 148.995 134.952 149.109 135.016 149.205C135.081 149.302 135.173 149.378 135.28 149.422C135.388 149.467 135.506 149.479 135.621 149.456C135.735 149.433 135.84 149.377 135.922 149.295C136.004 149.212 136.061 149.107 136.083 148.993C136.106 148.879 136.094 148.761 136.05 148.653C136.005 148.545 135.93 148.453 135.833 148.389C135.736 148.324 135.622 148.29 135.506 148.29C135.428 148.29 135.352 148.305 135.28 148.334C135.209 148.364 135.144 148.407 135.089 148.462C135.035 148.517 134.991 148.582 134.962 148.653C134.932 148.724 134.917 148.801 134.917 148.878Z" fill="white"/>
<path d="M132.075 148.878C132.075 148.995 132.11 149.109 132.174 149.205C132.239 149.302 132.331 149.378 132.439 149.422C132.546 149.467 132.665 149.479 132.779 149.456C132.893 149.433 132.998 149.377 133.08 149.295C133.163 149.212 133.219 149.107 133.241 148.993C133.264 148.879 133.253 148.761 133.208 148.653C133.163 148.545 133.088 148.453 132.991 148.389C132.894 148.324 132.78 148.29 132.664 148.29C132.508 148.29 132.358 148.352 132.248 148.462C132.137 148.572 132.075 148.722 132.075 148.878Z" fill="#F5F5F5"/>
<path d="M141.57 165.718H73.9609V168.368H141.57V165.718Z" fill="#F5F5F5"/>
<path d="M70.6637 173.851H73.9609V160.235H70.6637V173.851Z" fill="#E0E0E0"/>
<path d="M141.57 175.168H73.9609V188.784H141.57V175.168Z" fill="#EBEBEB"/>
<path d="M137.75 133.945C137.749 134.063 137.782 134.179 137.847 134.278C137.912 134.377 138.004 134.455 138.113 134.501C138.222 134.547 138.342 134.56 138.458 134.538C138.574 134.516 138.681 134.459 138.765 134.376C138.849 134.293 138.907 134.187 138.93 134.071C138.954 133.955 138.943 133.835 138.898 133.726C138.853 133.616 138.776 133.523 138.678 133.457C138.58 133.391 138.464 133.356 138.346 133.356C138.268 133.355 138.191 133.37 138.119 133.399C138.046 133.428 137.981 133.471 137.925 133.526C137.87 133.581 137.826 133.646 137.796 133.718C137.766 133.79 137.75 133.867 137.75 133.945Z" fill="white"/>
<path d="M134.917 133.945C134.917 134.062 134.952 134.176 135.016 134.272C135.081 134.369 135.173 134.445 135.28 134.489C135.388 134.534 135.506 134.545 135.621 134.523C135.735 134.5 135.84 134.444 135.922 134.362C136.004 134.279 136.061 134.174 136.083 134.06C136.106 133.946 136.094 133.828 136.05 133.72C136.005 133.612 135.93 133.52 135.833 133.456C135.736 133.391 135.622 133.356 135.506 133.356C135.428 133.356 135.352 133.372 135.28 133.401C135.209 133.431 135.144 133.474 135.089 133.529C135.035 133.584 134.991 133.648 134.962 133.72C134.932 133.791 134.917 133.868 134.917 133.945Z" fill="white"/>
<path d="M132.075 133.945C132.075 134.062 132.11 134.176 132.174 134.272C132.239 134.369 132.331 134.445 132.439 134.489C132.546 134.534 132.665 134.545 132.779 134.523C132.893 134.5 132.998 134.444 133.08 134.362C133.163 134.279 133.219 134.174 133.241 134.06C133.264 133.946 133.253 133.828 133.208 133.72C133.163 133.612 133.088 133.52 132.991 133.456C132.894 133.391 132.78 133.356 132.664 133.356C132.508 133.356 132.358 133.418 132.248 133.529C132.137 133.639 132.075 133.789 132.075 133.945Z" fill="#F5F5F5"/>
<path d="M141.57 180.651H73.9609V183.301H141.57V180.651Z" fill="#F5F5F5"/>
<path d="M70.6637 188.784H73.9609V175.168H70.6637V188.784Z" fill="#E0E0E0"/>
<path d="M141.57 190.102H73.9609V203.718H141.57V190.102Z" fill="#EBEBEB"/>
<path d="M137.75 119.012C137.749 119.13 137.782 119.246 137.847 119.345C137.912 119.444 138.004 119.521 138.113 119.568C138.222 119.614 138.342 119.627 138.458 119.605C138.574 119.582 138.681 119.526 138.765 119.443C138.849 119.36 138.907 119.254 138.93 119.138C138.954 119.022 138.943 118.902 138.898 118.793C138.853 118.683 138.776 118.59 138.678 118.524C138.58 118.458 138.464 118.423 138.346 118.423C138.268 118.422 138.191 118.436 138.119 118.466C138.046 118.495 137.981 118.538 137.925 118.593C137.87 118.648 137.826 118.713 137.796 118.785C137.766 118.857 137.75 118.934 137.75 119.012Z" fill="white"/>
<path d="M134.917 119.012C134.917 119.128 134.952 119.242 135.016 119.339C135.081 119.436 135.173 119.511 135.28 119.556C135.388 119.6 135.506 119.612 135.621 119.589C135.735 119.566 135.84 119.51 135.922 119.428C136.004 119.346 136.061 119.241 136.083 119.127C136.106 119.012 136.094 118.894 136.05 118.786C136.005 118.679 135.93 118.587 135.833 118.522C135.736 118.457 135.622 118.423 135.506 118.423C135.428 118.423 135.352 118.438 135.28 118.468C135.209 118.497 135.144 118.541 135.089 118.595C135.035 118.65 134.991 118.715 134.962 118.786C134.932 118.858 134.917 118.934 134.917 119.012Z" fill="#F5F5F5"/>
<path d="M132.075 119.012C132.075 119.128 132.11 119.242 132.174 119.339C132.239 119.436 132.331 119.511 132.439 119.556C132.546 119.6 132.665 119.612 132.779 119.589C132.893 119.566 132.998 119.51 133.08 119.428C133.163 119.346 133.219 119.241 133.241 119.127C133.264 119.012 133.253 118.894 133.208 118.786C133.163 118.679 133.088 118.587 132.991 118.522C132.894 118.457 132.78 118.423 132.664 118.423C132.508 118.423 132.358 118.485 132.248 118.595C132.137 118.706 132.075 118.855 132.075 119.012Z" fill="white"/>
<path d="M141.57 195.584H73.9609V198.234H141.57V195.584Z" fill="#F5F5F5"/>
<path d="M70.6637 203.71H73.9609V190.094H70.6637V203.71Z" fill="#E0E0E0"/>
<path d="M141.57 205.035H73.9609V218.651H141.57V205.035Z" fill="#EBEBEB"/>
<path d="M137.75 104.078C137.749 104.196 137.782 104.312 137.847 104.411C137.912 104.51 138.004 104.588 138.113 104.634C138.222 104.68 138.342 104.693 138.458 104.671C138.574 104.649 138.681 104.593 138.765 104.51C138.849 104.427 138.907 104.32 138.93 104.205C138.954 104.089 138.943 103.968 138.898 103.859C138.853 103.75 138.776 103.656 138.678 103.59C138.58 103.524 138.464 103.489 138.346 103.489C138.268 103.488 138.191 103.503 138.119 103.532C138.046 103.561 137.981 103.604 137.925 103.659C137.87 103.714 137.826 103.779 137.796 103.851C137.766 103.923 137.75 104 137.75 104.078Z" fill="#F5F5F5"/>
<path d="M134.917 104.078C134.917 104.195 134.952 104.308 135.016 104.405C135.081 104.502 135.173 104.577 135.28 104.622C135.388 104.667 135.506 104.678 135.621 104.656C135.735 104.633 135.84 104.577 135.922 104.494C136.004 104.412 136.061 104.307 136.083 104.193C136.106 104.079 136.094 103.96 136.05 103.853C136.005 103.745 135.93 103.653 135.833 103.588C135.736 103.524 135.622 103.489 135.506 103.489C135.428 103.489 135.352 103.504 135.28 103.534C135.209 103.564 135.144 103.607 135.089 103.662C135.035 103.716 134.991 103.781 134.962 103.853C134.932 103.924 134.917 104.001 134.917 104.078Z" fill="white"/>
<path d="M132.075 104.078C132.075 104.195 132.11 104.308 132.174 104.405C132.239 104.502 132.331 104.577 132.439 104.622C132.546 104.667 132.665 104.678 132.779 104.656C132.893 104.633 132.998 104.577 133.08 104.494C133.163 104.412 133.219 104.307 133.241 104.193C133.264 104.079 133.253 103.96 133.208 103.853C133.163 103.745 133.088 103.653 132.991 103.588C132.894 103.524 132.78 103.489 132.664 103.489C132.508 103.489 132.358 103.551 132.248 103.662C132.137 103.772 132.075 103.922 132.075 104.078Z" fill="#F5F5F5"/>
<path d="M141.57 210.518H73.9609V213.168H141.57V210.518Z" fill="#F5F5F5"/>
<path d="M70.6637 218.644H73.9609V205.028H70.6637V218.644Z" fill="#E0E0E0"/>
<path d="M141.57 219.969H73.9609V233.585H141.57V219.969Z" fill="#EBEBEB"/>
<path d="M137.75 89.1445C137.749 89.2627 137.782 89.3787 137.847 89.4777C137.912 89.5767 138.004 89.6543 138.113 89.7005C138.222 89.7468 138.342 89.7596 138.458 89.7375C138.574 89.7153 138.681 89.6591 138.765 89.576C138.849 89.493 138.907 89.3868 138.93 89.2709C138.954 89.1551 138.943 89.0348 138.898 88.9255C138.853 88.8161 138.776 88.7226 138.678 88.6567C138.58 88.5909 138.464 88.5557 138.346 88.5557C138.268 88.5547 138.191 88.5693 138.119 88.5984C138.046 88.6276 137.981 88.6708 137.925 88.7255C137.87 88.7803 137.826 88.8456 137.796 88.9175C137.766 88.9894 137.75 89.0666 137.75 89.1445Z" fill="#F5F5F5"/>
<path d="M134.917 89.1445C134.917 89.2609 134.952 89.3748 135.016 89.4716C135.081 89.5684 135.173 89.6439 135.28 89.6884C135.388 89.733 135.506 89.7447 135.621 89.722C135.735 89.6992 135.84 89.6432 135.922 89.5608C136.004 89.4785 136.061 89.3736 136.083 89.2593C136.106 89.1451 136.094 89.0267 136.05 88.9191C136.005 88.8116 135.93 88.7196 135.833 88.6549C135.736 88.5902 135.622 88.5557 135.506 88.5557C135.428 88.5557 135.352 88.5709 135.28 88.6005C135.209 88.6301 135.144 88.6734 135.089 88.7281C135.035 88.7828 134.991 88.8477 134.962 88.9191C134.932 88.9906 134.917 89.0671 134.917 89.1445Z" fill="#F5F5F5"/>
<path d="M132.075 89.1445C132.075 89.2609 132.11 89.3748 132.174 89.4716C132.239 89.5684 132.331 89.6439 132.439 89.6884C132.546 89.733 132.665 89.7447 132.779 89.722C132.893 89.6992 132.998 89.6432 133.08 89.5608C133.163 89.4785 133.219 89.3736 133.241 89.2593C133.264 89.1451 133.253 89.0267 133.208 88.9191C133.163 88.8116 133.088 88.7196 132.991 88.6549C132.894 88.5902 132.78 88.5557 132.664 88.5557C132.508 88.5557 132.358 88.6177 132.248 88.7281C132.137 88.8385 132.075 88.9883 132.075 89.1445Z" fill="white"/>
<path d="M141.57 225.452H73.9609V228.101H141.57V225.452Z" fill="#F5F5F5"/>
<path d="M70.6637 233.577H73.9609V219.961H70.6637V233.577Z" fill="#E0E0E0"/>
<path d="M134.562 33.8487C134.539 30.9686 133.379 28.2142 131.335 26.1852C129.29 24.1561 126.528 23.0167 123.647 23.0148C122.247 23.0118 120.86 23.2818 119.563 23.8097C118.361 21.3493 116.424 19.3235 114.02 18.013C111.616 16.7025 108.864 16.1723 106.145 16.4958C103.426 16.8192 100.875 17.9804 98.8457 19.8184C96.8162 21.6564 95.4087 24.0801 94.8182 26.7537C91.8708 26.9376 89.1109 28.2624 87.1239 30.4472C85.137 32.6319 84.0792 35.5047 84.1749 38.4563C84.2707 41.4079 85.5124 44.2061 87.6368 46.2575C89.7611 48.3089 92.6011 49.4521 95.5542 49.4446H131.699C133.583 49.4489 135.408 48.7921 136.857 47.5886C138.306 46.3851 139.287 44.7113 139.629 42.8589C139.97 41.0065 139.651 39.093 138.726 37.4518C137.802 35.8107 136.331 34.546 134.57 33.8782L134.562 33.8487Z" fill="#F5F5F5"/>
<path d="M310.791 23.0444C310.768 20.6901 310.169 18.3772 309.048 16.3069C307.927 14.2365 306.317 12.4716 304.358 11.1656C302.399 9.85964 300.151 9.0522 297.808 8.81355C295.466 8.57491 293.101 8.9123 290.919 9.79636C289.329 6.54412 286.769 3.86612 283.591 2.1327C280.413 0.399283 276.775 -0.303893 273.18 0.120417C269.585 0.544727 266.211 2.07556 263.524 4.5012C260.837 6.92684 258.97 10.1274 258.182 13.6604C254.302 13.9317 250.679 15.6965 248.073 18.5836C245.467 21.4708 244.082 25.2556 244.209 29.1426C244.336 33.0296 245.964 36.7162 248.753 39.4275C251.541 42.1388 255.271 43.6637 259.16 43.6818H307C309.493 43.6852 311.908 42.814 313.825 41.22C315.742 39.626 317.038 37.4101 317.489 34.9584C317.94 32.5067 317.517 29.9744 316.293 27.8028C315.069 25.6311 313.122 23.9576 310.791 23.0738V23.0444Z" fill="#F5F5F5"/>
<path d="M183.999 278.48C262.812 278.48 326.702 274.75 326.702 270.149C326.702 265.548 262.812 261.817 183.999 261.817C105.186 261.817 41.2959 265.548 41.2959 270.149C41.2959 274.75 105.186 278.48 183.999 278.48Z" fill="#F5F5F5"/>
<path d="M63.6785 259.278V258.196H57.0545C56.9061 258.196 56.7638 258.255 56.6589 258.36C56.554 258.465 56.4951 258.607 56.4951 258.755C56.4951 258.904 56.554 259.046 56.6589 259.151C56.7638 259.256 56.9061 259.315 57.0545 259.315L63.6785 259.278Z" fill="#E1DAFC"/>
<path d="M63.6785 264.084V262.965H57.0545C56.9061 262.965 56.7638 263.024 56.6589 263.129C56.554 263.234 56.4951 263.376 56.4951 263.525C56.4951 263.673 56.554 263.815 56.6589 263.92C56.7638 264.025 56.9061 264.084 57.0545 264.084H63.6785Z" fill="#E1DAFC"/>
<path d="M61.3085 255.429C61.1836 255.425 61.0593 255.446 60.9428 255.491C60.8264 255.537 60.7203 255.605 60.631 255.692C60.5416 255.78 60.4708 255.884 60.4228 255.999C60.3748 256.115 60.3506 256.239 60.3517 256.363V266.086C60.3496 266.212 60.3731 266.336 60.4206 266.452C60.4682 266.569 60.5388 266.674 60.6283 266.762C60.7177 266.85 60.8242 266.919 60.9411 266.965C61.058 267.011 61.183 267.032 61.3085 267.028C61.4309 267.028 61.5521 267.004 61.6651 266.957C61.7781 266.91 61.8806 266.841 61.9668 266.754C62.0531 266.667 62.1212 266.564 62.1674 266.45C62.2135 266.337 62.2368 266.216 62.2358 266.093V256.363C62.2368 256.241 62.2135 256.12 62.1674 256.006C62.1212 255.893 62.0531 255.79 61.9668 255.703C61.8806 255.616 61.7781 255.547 61.6651 255.5C61.5521 255.453 61.4309 255.429 61.3085 255.429Z" fill="#263238"/>
<path d="M63.9435 256.79H61.3086V265.659H63.9435C65.1147 265.659 66.2379 265.194 67.0661 264.365C67.8942 263.537 68.3595 262.414 68.3595 261.243C68.3643 260.66 68.2537 260.082 68.0339 259.542C67.8142 259.002 67.4897 258.51 67.0791 258.096C66.6686 257.682 66.1801 257.354 65.6419 257.13C65.1038 256.905 64.5265 256.79 63.9435 256.79Z" fill="#263238"/>
<path d="M84.7284 267.293C82.8272 267.258 80.9298 267.108 79.0465 266.844L75.8081 266.454C75.2929 266.454 74.7704 266.513 74.2404 266.572C73.5044 266.646 72.7316 266.771 71.9956 266.881C70.5864 267.151 69.1543 267.284 67.7195 267.279C67.4188 267.285 67.1201 267.228 66.8436 267.109C66.6726 267.037 66.5267 266.917 66.424 266.762C66.3214 266.608 66.2666 266.426 66.2666 266.241C66.2666 266.055 66.3214 265.874 66.424 265.719C66.5267 265.565 66.6726 265.444 66.8436 265.372C67.1007 265.254 67.3781 265.187 67.6606 265.174C69.2936 265.088 70.9312 265.169 72.5476 265.416L75.8596 265.814C77.1992 265.755 78.4945 265.814 79.7531 265.814C81.4212 265.886 83.0919 265.866 84.7579 265.755C86.2299 265.637 87.2824 265.137 87.3412 264.916C87.0248 264.533 86.2078 264.416 84.5371 264.18C83.3006 264.025 81.7256 263.981 80.0548 263.937C78.7448 263.9 77.3832 263.864 75.9921 263.775C73.21 263.584 69.6331 263.142 66.5934 261.368C66.525 261.323 66.4765 261.253 66.4579 261.173C66.4393 261.092 66.4518 261.008 66.4931 260.937C66.5343 260.866 66.6011 260.813 66.6799 260.789C66.7587 260.765 66.8435 260.773 66.9172 260.809C69.8612 262.524 73.3278 262.951 76.0289 263.135C77.4126 263.223 78.7668 263.26 80.0769 263.297C81.755 263.341 83.3521 263.385 84.618 263.547C85.349 263.615 86.0745 263.733 86.7892 263.9L86.7083 263.79C86.4654 263.473 86.2152 263.157 85.9723 262.811C85.6425 262.367 85.3933 261.869 85.2363 261.339C85.1594 261.04 85.1519 260.727 85.2144 260.425C85.2769 260.123 85.4078 259.839 85.5969 259.595C86.0651 259.139 86.6879 258.876 87.3412 258.859C88.8781 258.762 90.421 258.858 91.9339 259.146C91.9754 259.152 92.0154 259.166 92.0513 259.188C92.0873 259.21 92.1187 259.238 92.1436 259.272C92.1686 259.306 92.1866 259.345 92.1967 259.385C92.2068 259.426 92.2088 259.469 92.2025 259.51C92.1962 259.552 92.1818 259.592 92.1601 259.628C92.1384 259.664 92.1098 259.695 92.076 259.72C92.0422 259.745 92.0038 259.763 91.963 259.773C91.9221 259.783 91.8798 259.785 91.8382 259.779C90.3834 259.503 88.9001 259.409 87.4222 259.499C86.9358 259.509 86.4687 259.691 86.1048 260.014C85.9781 260.182 85.8917 260.377 85.8521 260.584C85.8126 260.791 85.8209 261.004 85.8766 261.207C86.0086 261.668 86.2176 262.103 86.4948 262.495C86.7009 262.811 86.9364 263.12 87.172 263.422C87.4075 263.724 87.4737 263.812 87.6136 264.011L87.6872 264.114C88.1251 264.575 88.37 265.186 88.3716 265.821C88.1729 267.242 86.1636 267.293 85.2068 267.293H84.7284ZM81.6961 266.498C82.8408 266.61 83.9906 266.659 85.1406 266.646C85.9649 266.646 87.5988 266.601 87.724 265.726C87.7453 265.629 87.7453 265.528 87.724 265.431C87.1793 266.005 85.7294 266.314 84.78 266.395C83.8305 266.476 82.7192 266.498 81.6961 266.498ZM68.7867 265.762C68.4089 265.762 68.0335 265.777 67.6606 265.807C67.4627 265.815 67.2681 265.86 67.0865 265.939C67.023 265.957 66.967 265.995 66.9271 266.047C66.8872 266.1 66.8656 266.164 66.8656 266.23C66.8656 266.296 66.8872 266.36 66.9271 266.412C66.967 266.465 67.023 266.503 67.0865 266.52C67.2828 266.599 67.4933 266.637 67.7048 266.631C69.0977 266.634 70.4878 266.503 71.8558 266.241L72.7979 266.094L72.4078 266.049C71.2169 265.887 70.0177 265.794 68.8161 265.77L68.7867 265.762Z" fill="#263238"/>
<path d="M162.001 89.6519H95.9157L88.5557 97.0119V260.948L95.9157 268.308H162.001L169.361 260.948V97.0119L162.001 89.6519Z" fill="black"/>
<path d="M76.6614 103.93L75.1746 105.962L71.3916 100.56L74.2252 111.143L75.7193 109.119L79.495 114.521L76.6614 103.93Z" fill="#E1DAFC"/>
<path d="M133.26 68.4553L131.023 69.6034L130.044 63.0898L127.865 73.8281L130.103 72.6799L131.082 79.2009L133.26 68.4553Z" fill="#E1DAFC"/>
<path d="M152.094 71.3991L148.693 70.6042L153.507 62.8247L141.554 72.2455L144.955 73.033L140.134 80.8125L152.094 71.3991Z" fill="#E1DAFC"/>
<path opacity="0.7" d="M88.5557 260.949L95.9157 268.309H125.245L117.885 260.949H88.5557Z" fill="#263238"/>
<path opacity="0.7" d="M88.5557 97.0197L95.9157 89.6597H125.245L117.885 97.0197H88.5557Z" fill="#263238"/>
<path d="M191.36 89.6519H125.245C122.367 92.5296 120.763 94.1415 117.885 97.0119V260.948C120.763 263.819 122.367 265.431 125.245 268.308H191.36L198.72 260.948V97.0119L191.36 89.6519Z" fill="#263238"/>
<path opacity="0.6" d="M126.18 264.872L121.322 260.007V97.9616L126.18 93.0967H190.396L195.253 97.9616V260.007L190.396 264.872H126.18Z" fill="#E1DAFC"/>
<path d="M195.254 101.818H124.76V116.016H195.254V101.818Z" fill="#263238"/>
<path d="M191.271 105.55C191.273 105.387 191.339 105.23 191.455 105.115C191.57 104.999 191.726 104.934 191.89 104.932C192.054 104.932 192.211 104.997 192.327 105.113C192.443 105.229 192.508 105.386 192.508 105.55C192.508 105.714 192.443 105.871 192.327 105.987C192.211 106.103 192.054 106.168 191.89 106.168C191.726 106.166 191.57 106.1 191.455 105.985C191.339 105.869 191.273 105.713 191.271 105.55Z" fill="#E1DAFC"/>
<path d="M188.313 105.55C188.313 105.427 188.349 105.307 188.417 105.206C188.485 105.104 188.582 105.025 188.696 104.978C188.809 104.931 188.934 104.92 189.054 104.944C189.174 104.969 189.284 105.028 189.371 105.115C189.457 105.203 189.515 105.313 189.538 105.434C189.561 105.554 189.548 105.679 189.5 105.792C189.452 105.904 189.371 106 189.269 106.067C189.166 106.135 189.046 106.17 188.923 106.168C188.761 106.166 188.605 106.1 188.491 105.984C188.377 105.869 188.312 105.713 188.313 105.55Z" fill="white"/>
<path d="M185.348 105.55C185.348 105.428 185.384 105.308 185.452 105.206C185.52 105.105 185.616 105.025 185.729 104.979C185.842 104.932 185.967 104.92 186.087 104.944C186.206 104.967 186.317 105.026 186.403 105.113C186.49 105.199 186.548 105.309 186.572 105.429C186.596 105.549 186.584 105.673 186.537 105.786C186.49 105.899 186.411 105.996 186.309 106.064C186.208 106.132 186.088 106.168 185.966 106.168C185.803 106.166 185.646 106.1 185.531 105.985C185.415 105.869 185.35 105.713 185.348 105.55Z" fill="#E1DAFC"/>
<path d="M195.254 107.537H124.76V110.297H195.254V107.537Z" fill="#E1DAFC"/>
<path d="M121.323 116.023H124.76V101.826H121.323V116.023Z" fill="black"/>
<path d="M195.254 117.392H124.76V131.59H195.254V117.392Z" fill="#263238"/>
<path d="M191.89 121.735C192.231 121.735 192.508 121.458 192.508 121.116C192.508 120.775 192.231 120.498 191.89 120.498C191.548 120.498 191.271 120.775 191.271 121.116C191.271 121.458 191.548 121.735 191.89 121.735Z" fill="#E1DAFC"/>
<path d="M188.924 121.735C189.265 121.735 189.542 121.458 189.542 121.116C189.542 120.775 189.265 120.498 188.924 120.498C188.582 120.498 188.306 120.775 188.306 121.116C188.306 121.458 188.582 121.735 188.924 121.735Z" fill="white"/>
<path d="M185.966 121.735C186.307 121.735 186.584 121.458 186.584 121.116C186.584 120.775 186.307 120.498 185.966 120.498C185.624 120.498 185.348 120.775 185.348 121.116C185.348 121.458 185.624 121.735 185.966 121.735Z" fill="white"/>
<path d="M195.254 123.111H124.76V125.871H195.254V123.111Z" fill="#E1DAFC"/>
<path d="M121.323 131.589H124.76V117.392H121.323V131.589Z" fill="black"/>
<path d="M195.254 132.958H124.76V147.156H195.254V132.958Z" fill="#263238"/>
<path d="M191.89 137.308C192.231 137.308 192.508 137.031 192.508 136.69C192.508 136.349 192.231 136.072 191.89 136.072C191.548 136.072 191.271 136.349 191.271 136.69C191.271 137.031 191.548 137.308 191.89 137.308Z" fill="#E1DAFC"/>
<path d="M188.924 137.308C189.265 137.308 189.542 137.031 189.542 136.69C189.542 136.349 189.265 136.072 188.924 136.072C188.582 136.072 188.306 136.349 188.306 136.69C188.306 137.031 188.582 137.308 188.924 137.308Z" fill="#E1DAFC"/>
<path d="M185.966 137.308C186.307 137.308 186.584 137.031 186.584 136.69C186.584 136.349 186.307 136.072 185.966 136.072C185.624 136.072 185.348 136.349 185.348 136.69C185.348 137.031 185.624 137.308 185.966 137.308Z" fill="#E1DAFC"/>
<path d="M195.254 138.677H124.76V141.437H195.254V138.677Z" fill="#E1DAFC"/>
<path d="M121.323 147.163H124.76V132.966H121.323V147.163Z" fill="black"/>
<path d="M195.254 148.532H124.76V162.73H195.254V148.532Z" fill="#263238"/>
<path d="M191.89 152.875C192.231 152.875 192.508 152.598 192.508 152.256C192.508 151.915 192.231 151.638 191.89 151.638C191.548 151.638 191.271 151.915 191.271 152.256C191.271 152.598 191.548 152.875 191.89 152.875Z" fill="white"/>
<path d="M188.924 152.875C189.265 152.875 189.542 152.598 189.542 152.256C189.542 151.915 189.265 151.638 188.924 151.638C188.582 151.638 188.306 151.915 188.306 152.256C188.306 152.598 188.582 152.875 188.924 152.875Z" fill="white"/>
<path d="M185.966 152.875C186.307 152.875 186.584 152.598 186.584 152.256C186.584 151.915 186.307 151.638 185.966 151.638C185.624 151.638 185.348 151.915 185.348 152.256C185.348 152.598 185.624 152.875 185.966 152.875Z" fill="#E1DAFC"/>
<path d="M195.254 154.251H124.76V157.011H195.254V154.251Z" fill="#E1DAFC"/>
<path d="M121.323 162.729H124.76V148.532H121.323V162.729Z" fill="black"/>
<path d="M195.254 164.099H124.76V178.296H195.254V164.099Z" fill="#263238"/>
<path d="M191.271 167.83C191.273 167.667 191.339 167.511 191.455 167.395C191.57 167.28 191.726 167.214 191.89 167.212C192.054 167.212 192.211 167.277 192.327 167.393C192.443 167.509 192.508 167.666 192.508 167.83C192.508 167.994 192.443 168.151 192.327 168.267C192.211 168.383 192.054 168.448 191.89 168.448C191.726 168.446 191.57 168.381 191.455 168.265C191.339 168.15 191.273 167.994 191.271 167.83Z" fill="white"/>
<path d="M188.313 167.83C188.313 167.708 188.349 167.588 188.417 167.486C188.485 167.384 188.582 167.305 188.696 167.258C188.809 167.212 188.934 167.2 189.054 167.224C189.174 167.249 189.284 167.308 189.371 167.396C189.457 167.483 189.515 167.594 189.538 167.714C189.561 167.834 189.548 167.959 189.5 168.072C189.452 168.185 189.371 168.281 189.269 168.348C189.166 168.415 189.046 168.45 188.923 168.448C188.761 168.446 188.605 168.38 188.491 168.265C188.377 168.149 188.312 167.993 188.313 167.83Z" fill="white"/>
<path d="M185.348 167.83C185.348 167.708 185.384 167.588 185.452 167.487C185.52 167.385 185.616 167.306 185.729 167.259C185.842 167.212 185.967 167.2 186.087 167.224C186.206 167.248 186.317 167.307 186.403 167.393C186.49 167.479 186.548 167.59 186.572 167.71C186.596 167.829 186.584 167.954 186.537 168.067C186.49 168.18 186.411 168.276 186.309 168.344C186.208 168.412 186.088 168.448 185.966 168.448C185.803 168.446 185.646 168.381 185.531 168.265C185.415 168.15 185.35 167.994 185.348 167.83Z" fill="white"/>
<path d="M195.254 169.817H124.76V172.577H195.254V169.817Z" fill="#E1DAFC"/>
<path d="M121.323 178.303H124.76V164.106H121.323V178.303Z" fill="black"/>
<path d="M195.254 179.672H124.76V193.87H195.254V179.672Z" fill="#263238"/>
<path d="M191.271 183.397C191.273 183.234 191.339 183.078 191.455 182.964C191.571 182.85 191.727 182.786 191.89 182.786C192.041 182.802 192.181 182.874 192.283 182.988C192.384 183.101 192.441 183.248 192.441 183.4C192.441 183.553 192.384 183.699 192.283 183.813C192.181 183.926 192.041 183.998 191.89 184.015C191.726 184.015 191.569 183.95 191.453 183.834C191.337 183.718 191.271 183.56 191.271 183.397Z" fill="#E1DAFC"/>
<path d="M188.313 183.397C188.313 183.274 188.349 183.154 188.417 183.052C188.486 182.95 188.583 182.871 188.696 182.825C188.809 182.778 188.934 182.766 189.054 182.791C189.174 182.815 189.284 182.875 189.371 182.962C189.457 183.049 189.515 183.16 189.538 183.28C189.561 183.401 189.548 183.525 189.5 183.638C189.452 183.751 189.372 183.847 189.269 183.914C189.166 183.981 189.046 184.016 188.923 184.015C188.843 184.015 188.763 183.999 188.688 183.968C188.613 183.936 188.546 183.891 188.489 183.833C188.432 183.776 188.387 183.708 188.357 183.633C188.327 183.558 188.312 183.477 188.313 183.397Z" fill="white"/>
<path d="M185.348 183.397C185.348 183.274 185.384 183.155 185.452 183.053C185.52 182.951 185.616 182.872 185.729 182.825C185.842 182.779 185.967 182.766 186.087 182.79C186.206 182.814 186.317 182.873 186.403 182.959C186.49 183.046 186.548 183.156 186.572 183.276C186.596 183.396 186.584 183.52 186.537 183.633C186.49 183.746 186.411 183.843 186.309 183.911C186.208 183.979 186.088 184.015 185.966 184.015C185.802 184.015 185.645 183.95 185.529 183.834C185.413 183.718 185.348 183.561 185.348 183.397Z" fill="#E1DAFC"/>
<path d="M195.254 185.391H124.76V188.151H195.254V185.391Z" fill="#E1DAFC"/>
<path d="M121.323 193.862H124.76V179.665H121.323V193.862Z" fill="black"/>
<path d="M195.254 195.239H124.76V209.436H195.254V195.239Z" fill="#263238"/>
<path d="M191.89 199.589C192.231 199.589 192.508 199.312 192.508 198.97C192.508 198.629 192.231 198.352 191.89 198.352C191.548 198.352 191.271 198.629 191.271 198.97C191.271 199.312 191.548 199.589 191.89 199.589Z" fill="white"/>
<path d="M188.924 199.589C189.265 199.589 189.542 199.312 189.542 198.97C189.542 198.629 189.265 198.352 188.924 198.352C188.582 198.352 188.306 198.629 188.306 198.97C188.306 199.312 188.582 199.589 188.924 199.589Z" fill="white"/>
<path d="M185.966 199.589C186.307 199.589 186.584 199.312 186.584 198.97C186.584 198.629 186.307 198.352 185.966 198.352C185.624 198.352 185.348 198.629 185.348 198.97C185.348 199.312 185.624 199.589 185.966 199.589Z" fill="#E1DAFC"/>
<path d="M195.254 200.958H124.76V203.718H195.254V200.958Z" fill="#E1DAFC"/>
<path d="M121.323 209.436H124.76V195.239H121.323V209.436Z" fill="black"/>
<path d="M195.254 210.812H124.76V225.01H195.254V210.812Z" fill="#263238"/>
<path d="M191.89 215.155C192.231 215.155 192.508 214.878 192.508 214.537C192.508 214.195 192.231 213.918 191.89 213.918C191.548 213.918 191.271 214.195 191.271 214.537C191.271 214.878 191.548 215.155 191.89 215.155Z" fill="white"/>
<path d="M188.924 215.155C189.265 215.155 189.542 214.878 189.542 214.537C189.542 214.195 189.265 213.918 188.924 213.918C188.582 213.918 188.306 214.195 188.306 214.537C188.306 214.878 188.582 215.155 188.924 215.155Z" fill="#E1DAFC"/>
<path d="M185.966 215.155C186.307 215.155 186.584 214.878 186.584 214.537C186.584 214.195 186.307 213.918 185.966 213.918C185.624 213.918 185.348 214.195 185.348 214.537C185.348 214.878 185.624 215.155 185.966 215.155Z" fill="white"/>
<path d="M195.254 216.531H124.76V219.291H195.254V216.531Z" fill="#E1DAFC"/>
<path d="M121.323 225.002H124.76V210.805H121.323V225.002Z" fill="black"/>
<path d="M195.254 226.379H124.76V240.576H195.254V226.379Z" fill="#263238"/>
<path d="M191.89 230.729C192.231 230.729 192.508 230.452 192.508 230.11C192.508 229.769 192.231 229.492 191.89 229.492C191.548 229.492 191.271 229.769 191.271 230.11C191.271 230.452 191.548 230.729 191.89 230.729Z" fill="#E1DAFC"/>
<path d="M188.924 230.729C189.265 230.729 189.542 230.452 189.542 230.11C189.542 229.769 189.265 229.492 188.924 229.492C188.582 229.492 188.306 229.769 188.306 230.11C188.306 230.452 188.582 230.729 188.924 230.729Z" fill="white"/>
<path d="M185.966 230.729C186.307 230.729 186.584 230.452 186.584 230.11C186.584 229.769 186.307 229.492 185.966 229.492C185.624 229.492 185.348 229.769 185.348 230.11C185.348 230.452 185.624 230.729 185.966 230.729Z" fill="#E1DAFC"/>
<path d="M195.254 232.098H124.76V234.858H195.254V232.098Z" fill="#E1DAFC"/>
<path d="M121.323 240.576H124.76V226.379H121.323V240.576Z" fill="black"/>
<path d="M195.254 241.953H124.76V256.15H195.254V241.953Z" fill="#263238"/>
<path d="M191.89 246.295C192.231 246.295 192.508 246.018 192.508 245.677C192.508 245.335 192.231 245.059 191.89 245.059C191.548 245.059 191.271 245.335 191.271 245.677C191.271 246.018 191.548 246.295 191.89 246.295Z" fill="#E1DAFC"/>
<path d="M188.924 246.295C189.265 246.295 189.542 246.018 189.542 245.677C189.542 245.335 189.265 245.059 188.924 245.059C188.582 245.059 188.306 245.335 188.306 245.677C188.306 246.018 188.582 246.295 188.924 246.295Z" fill="#E1DAFC"/>
<path d="M185.966 246.295C186.307 246.295 186.584 246.018 186.584 245.677C186.584 245.335 186.307 245.059 185.966 245.059C185.624 245.059 185.348 245.335 185.348 245.677C185.348 246.018 185.624 246.295 185.966 246.295Z" fill="white"/>
<path d="M195.254 247.671H124.76V250.431H195.254V247.671Z" fill="#E1DAFC"/>
<path d="M121.323 256.143H124.76V241.945H121.323V256.143Z" fill="black"/>
<path opacity="0.7" d="M126.18 264.872L121.322 260.007V97.9616L126.18 93.0967H164.216L169.074 97.9616V260.007L164.216 264.872H126.18Z" fill="#E1DAFC"/>
<path d="M164.216 264.872L169.073 260.007V97.9616L164.216 93.0967H166.122L170.295 97.2698V260.699L166.122 264.872H164.216Z" fill="#E1DAFC"/>
<path d="M263.62 96.0625C265.225 99.1979 266.638 102.311 267.948 105.564C268.596 107.183 269.214 108.839 269.773 110.532C270.385 112.293 270.877 114.093 271.245 115.92L271.312 116.288L271.348 116.487L271.385 116.759C271.385 116.935 271.437 117.127 271.452 117.303V117.789C271.464 118.362 271.437 118.935 271.371 119.504C271.247 120.483 271.067 121.453 270.833 122.411C270.389 124.157 269.848 125.877 269.214 127.563C267.987 130.841 266.526 134.026 264.842 137.095C264.611 137.529 264.23 137.863 263.77 138.036C263.309 138.208 262.802 138.207 262.342 138.031C261.883 137.856 261.504 137.519 261.276 137.083C261.047 136.648 260.986 136.144 261.103 135.667V135.623C261.839 132.369 262.656 129.072 263.311 125.863C263.65 124.259 263.922 122.654 264.114 121.138C264.203 120.427 264.252 119.712 264.261 118.996C264.262 118.718 264.244 118.44 264.209 118.165V118.01V117.929L264.165 117.775L264.092 117.517C263.694 116.17 263.127 114.669 262.524 113.175C261.92 111.68 261.258 110.179 260.573 108.67C259.219 105.667 257.791 102.613 256.393 99.6468V99.6027C255.92 98.6384 255.849 97.5255 256.196 96.509C256.543 95.4924 257.28 94.6554 258.244 94.182C259.208 93.7087 260.321 93.6378 261.338 93.9849C262.354 94.332 263.191 95.0688 263.665 96.0331L263.62 96.0625Z" fill="#FFB573"/>
<path d="M260.051 136.675L262.561 132.995L265.056 132.259C266.204 133.658 265.873 135.814 265.534 137.051L264.798 141.658C264.732 142.079 264.531 142.467 264.226 142.764C263.921 143.061 263.528 143.251 263.105 143.307L261.464 143.542C261.175 143.583 260.881 143.565 260.599 143.488C260.318 143.412 260.055 143.278 259.827 143.096C259.599 142.914 259.41 142.688 259.273 142.43C259.135 142.173 259.052 141.89 259.028 141.599L258.962 140.804C258.836 139.343 259.221 137.884 260.051 136.675Z" fill="#FFB573"/>
<path d="M255.952 146.619C256.558 145.928 256.883 145.035 256.865 144.116L269.244 138.368L269.34 138.456C270.094 139.09 271.068 139.399 272.049 139.314C273.03 139.23 273.938 138.76 274.573 138.007C274.845 137.681 275.06 137.31 275.206 136.911L272.519 137.279C272.35 137.301 272.178 137.289 272.013 137.244C271.849 137.198 271.695 137.119 271.562 137.013C271.429 136.906 271.318 136.774 271.237 136.624C271.156 136.473 271.107 136.308 271.091 136.138L271.01 135.211C270.995 135.04 271.015 134.868 271.069 134.705C271.123 134.543 271.209 134.393 271.323 134.264C271.436 134.136 271.575 134.033 271.73 133.96C271.885 133.887 272.054 133.847 272.225 133.842L274.941 133.739C274.723 133.375 274.447 133.049 274.124 132.774C273.581 132.298 272.909 131.993 272.194 131.895C271.478 131.798 270.749 131.914 270.099 132.227C269.448 132.541 268.905 133.04 268.535 133.66C268.166 134.281 267.988 134.997 268.022 135.718L255.635 141.467L255.547 141.378C254.793 140.745 253.819 140.436 252.838 140.52C251.857 140.604 250.949 141.074 250.314 141.827C250.043 142.153 249.827 142.521 249.674 142.917L252.368 142.556C252.537 142.533 252.709 142.545 252.873 142.591C253.038 142.637 253.191 142.715 253.325 142.822C253.458 142.928 253.569 143.061 253.65 143.211C253.73 143.361 253.78 143.527 253.795 143.697L253.869 144.624C253.884 144.794 253.864 144.965 253.811 145.128C253.758 145.29 253.672 145.44 253.559 145.568C253.446 145.696 253.309 145.799 253.154 145.873C253 145.946 252.833 145.987 252.662 145.993L249.946 146.089C250.157 146.459 250.434 146.788 250.763 147.06C251.133 147.372 251.56 147.608 252.021 147.755C252.482 147.902 252.967 147.956 253.449 147.915C253.931 147.874 254.4 147.738 254.83 147.516C255.259 147.293 255.64 146.989 255.952 146.619Z" fill="#263238"/>
<path opacity="0.1" d="M256.578 142.644C256.535 142.556 256.51 142.459 256.505 142.361C256.5 142.262 256.514 142.164 256.548 142.071C256.582 141.978 256.634 141.894 256.701 141.821C256.768 141.749 256.849 141.691 256.939 141.651L266.845 137.058C266.934 137.015 267.03 136.99 267.129 136.985C267.227 136.98 267.326 136.994 267.418 137.028C267.511 137.062 267.596 137.114 267.668 137.181C267.741 137.248 267.799 137.329 267.839 137.419C267.881 137.507 267.905 137.603 267.909 137.7C267.914 137.798 267.899 137.896 267.865 137.987C267.832 138.079 267.78 138.163 267.714 138.235C267.647 138.307 267.567 138.365 267.478 138.405L257.601 142.983C257.512 143.032 257.415 143.061 257.314 143.071C257.213 143.08 257.112 143.068 257.016 143.036C256.92 143.005 256.832 142.953 256.756 142.886C256.681 142.818 256.62 142.736 256.578 142.644Z" fill="white"/>
<path d="M254.899 88.3862C259.315 89.3578 261.523 91.6246 265.792 98.7638C263.363 102.363 257.423 105.476 257.423 105.476L254.847 102.532C251.624 96.5485 254.899 88.401 254.899 88.401" fill="#263238"/>
<path opacity="0.2" d="M253.434 96.5337C253.415 98.6131 253.9 100.666 254.847 102.517L257.416 105.461C257.416 105.461 258.351 104.968 259.624 104.151C257.534 99.9561 255.892 97.8585 253.434 96.5337Z" fill="black"/>
<path d="M234.453 95.231L234.372 95.6947L234.299 96.048L234.144 96.703C234.026 97.1225 233.894 97.5347 233.754 97.9321C233.469 98.7311 233.132 99.5104 232.746 100.265C231.968 101.785 230.977 103.185 229.802 104.424C228.618 105.669 227.253 106.728 225.754 107.566C224.295 108.383 222.733 109 221.109 109.399L220.852 109.465C219.934 109.695 218.963 109.551 218.152 109.065C217.341 108.579 216.755 107.792 216.524 106.875C216.48 106.701 216.451 106.523 216.436 106.345C216.307 104.868 216.394 103.38 216.693 101.929C216.963 100.631 217.324 99.3547 217.775 98.1088C218.647 95.7879 219.713 93.545 220.962 91.4038C222.166 89.3375 223.473 87.3331 224.878 85.3981C226.298 83.4845 227.726 81.6445 229.353 79.8486C229.685 79.4776 230.143 79.2432 230.638 79.1908C231.134 79.1385 231.631 79.2719 232.033 79.5653C232.436 79.8586 232.715 80.291 232.816 80.7785C232.918 81.2661 232.835 81.774 232.584 82.2038V82.2553C231.472 84.1616 230.339 86.1561 229.316 88.1433C228.293 90.1305 227.299 92.1325 226.431 94.1491C225.566 96.1015 224.843 98.1135 224.267 100.17C223.732 101.887 223.546 103.694 223.722 105.483L219.041 102.429C219.998 102.057 220.909 101.578 221.757 101.001C222.558 100.439 223.285 99.7789 223.921 99.0361C224.552 98.2821 225.093 97.4572 225.533 96.5779C225.763 96.136 225.962 95.6786 226.129 95.2089C226.217 94.9808 226.284 94.7453 226.357 94.5245L226.453 94.2006L226.49 94.0608C226.56 93.5266 226.737 93.0119 227.009 92.5468C227.281 92.0817 227.643 91.6757 228.074 91.3524C228.505 91.0291 228.996 90.7951 229.519 90.6641C230.041 90.5331 230.585 90.5078 231.117 90.5896C231.65 90.6714 232.161 90.8587 232.62 91.1406C233.079 91.4224 233.478 91.793 233.792 92.2308C234.106 92.6686 234.329 93.1647 234.449 93.69C234.569 94.2153 234.583 94.7592 234.49 95.2899L234.453 95.231Z" fill="#FFB573"/>
<path d="M236.323 94.679C236.779 91.9116 234.851 88.5923 234.851 88.5923C230.435 88.8057 226.225 89.8803 222.162 98.1971C223.141 102.834 229.287 106.102 229.287 106.102L233.622 100.479C233.622 100.479 235.859 97.4537 236.323 94.679Z" fill="#263238"/>
<path d="M230.538 77.7876L231.76 76.4628C232.29 75.8936 232.948 75.4595 233.681 75.1969L234.844 74.7774C235.151 74.6688 235.478 74.6278 235.803 74.6572C236.128 74.6866 236.442 74.7857 236.725 74.9478C237.008 75.1099 237.253 75.3311 237.443 75.5964C237.632 75.8617 237.763 76.1647 237.824 76.4849L238.111 78.0158C238.216 78.567 238.113 79.1376 237.82 79.6165C237.528 80.0954 237.067 80.4483 236.529 80.6065L234.741 81.1291C234.095 82.1474 233.108 82.9028 231.956 83.2602C230.805 83.6175 229.564 83.5535 228.455 83.0795C228.454 81.1153 229.198 79.2239 230.538 77.7876Z" fill="#FFB573"/>
<path d="M262.627 256.791H256.504C256.504 256.791 256.798 261.273 256.776 263.93L262.178 264.577C261.715 261.633 262.627 256.791 262.627 256.791Z" fill="#FFB573"/>
<path d="M235.646 130.816C235.646 130.816 246.634 177.383 250.064 196.32C253.663 216.192 256.114 256.062 256.106 257.519C258.079 257.129 261.258 257.04 262.841 257.519C262.841 257.519 270.407 210.636 263.577 193.229C260.979 160.227 264.313 141.555 257.689 130.824L235.646 130.816Z" fill="#E1DAFC"/>
<path opacity="0.2" d="M249.637 145.257C247.841 137.897 241.747 138.633 237.78 139.972C240.253 150.608 244.353 168.514 247.348 182.719C251.602 172.518 252.066 155.156 249.637 145.257Z" fill="black"/>
<path d="M223.626 255.988C223.074 263.105 217.297 270.76 217.297 270.76L226.21 268.478L229.963 262.899C229.986 260.776 230.265 258.663 230.795 256.607L223.626 255.988Z" fill="#FFB573"/>
<path d="M226.689 130.816C226.689 130.816 228.242 180.364 227.837 194.848C227.27 214.926 223.061 257.526 223.061 257.526C226.255 257.195 229.015 257.099 230.781 257.526C230.781 257.526 244.029 223.037 242.476 195.04C245.788 169.096 256.946 145.264 250.05 130.831L226.689 130.816Z" fill="#E1DAFC"/>
<path d="M250.293 74.9321C249.424 78.6857 248.445 85.5673 250.984 88.0771C248.733 91.5187 245.481 94.1875 241.667 95.7241C236.75 92.574 239.311 88.0771 239.311 88.0771C243.536 87.0761 243.536 83.9702 242.91 81.0483L250.293 74.9321Z" fill="#FFB573"/>
<path d="M251.028 84.1836C251.028 84.1836 242.491 83.0207 238.295 86.5094C238.232 87.3771 237.871 88.1963 237.272 88.8278C241.846 89.8319 246.555 90.0632 251.205 89.5123C252.316 87.606 251.028 84.1836 251.028 84.1836Z" fill="#E1DAFC"/>
<path d="M227.585 96.8653C228.042 108.641 225.451 126.548 226.702 130.817C239.332 132.098 249.202 131.884 257.695 130.817C259.167 126.158 255.664 112.321 259.69 95.857C259.909 95.011 259.942 94.1278 259.787 93.2678C259.632 92.4078 259.293 91.5915 258.793 90.8748C258.294 90.1581 257.645 89.5581 256.891 89.1159C256.137 88.6737 255.297 88.3998 254.427 88.313C253.338 88.2026 252.175 88.1069 250.983 88.048C247.097 87.7717 243.196 87.7717 239.31 88.048C237.838 88.1805 236.278 88.3792 234.835 88.5927C230.728 89.1888 227.424 92.7437 227.585 96.8653Z" fill="#263238"/>
<path d="M236.434 68.5881C236.382 69.1033 236.073 69.5007 235.742 69.4786C235.41 69.4565 235.182 69.0297 235.234 68.5145C235.285 67.9993 235.587 67.6092 235.918 67.6313C236.25 67.6533 236.478 68.0802 236.434 68.5881Z" fill="#263238"/>
<path d="M236.065 67.6676L234.88 67.2334C234.88 67.2334 235.41 68.2344 236.065 67.6676Z" fill="#263238"/>
<path d="M235.778 65.2317C235.74 65.2242 235.703 65.2084 235.672 65.1855C235.64 65.1627 235.613 65.1332 235.594 65.0992C235.554 65.0299 235.543 64.9476 235.564 64.8703C235.585 64.793 235.635 64.7271 235.705 64.6871C236.097 64.4174 236.55 64.247 237.023 64.1906C237.496 64.1342 237.975 64.1935 238.42 64.3632C238.455 64.3805 238.487 64.4044 238.512 64.4338C238.538 64.4632 238.557 64.4973 238.57 64.5343C238.582 64.5713 238.587 64.6103 238.584 64.6492C238.581 64.688 238.57 64.7259 238.553 64.7607C238.521 64.8338 238.461 64.8912 238.386 64.9202C238.312 64.9492 238.229 64.9474 238.155 64.9152C237.801 64.7852 237.421 64.7426 237.047 64.7913C236.672 64.84 236.315 64.9785 236.006 65.1949C235.938 65.2355 235.856 65.2487 235.778 65.2317Z" fill="#263238"/>
<path d="M236.329 70.001C235.768 71.1401 235.058 72.1995 234.217 73.1511C234.46 73.3549 234.745 73.5017 235.052 73.5807C235.359 73.6596 235.68 73.6688 235.991 73.6074L236.329 70.001Z" fill="#ED893E"/>
<path d="M253.722 67.5721C252.75 73.8281 252.47 76.4997 249.026 79.5321C243.874 84.0953 236.462 81.7842 235.564 75.4178C234.762 69.6917 236.484 60.4181 242.807 58.2911C244.174 57.8013 245.647 57.6806 247.076 57.9412C248.506 58.2019 249.841 58.8346 250.948 59.7757C252.054 60.7168 252.894 61.933 253.381 63.3017C253.868 64.6705 253.985 66.1434 253.722 67.5721Z" fill="#FFB573"/>
<path d="M238.111 60.4919C236.852 62.9722 239.332 67.5722 240.996 69.4564C238.052 72.6432 235.108 78.1412 238.986 81.4384C242.563 84.4413 261.744 84.3825 258.012 77.9498C261.302 73.9018 255.804 73.3277 258.439 65.4378C260.345 59.7191 256.761 58.1293 253.544 58.674C249.879 54.0666 240.723 55.3325 238.111 60.4919Z" fill="#263238"/>
<path d="M239.517 63.0898C239.517 63.0898 245.449 67.9474 252.279 68.7423C255.959 69.1692 257.799 69.1177 257.968 68.5583C258.137 67.999 258.454 66.1148 258.454 66.1148L239.517 63.0898Z" fill="#E0E0E0"/>
<path d="M234.482 61.8165C236.278 63.237 249.85 67.1157 258.998 66.2325C259.086 65.6879 258.792 65.6217 258.792 65.6217C258.792 65.6217 260.897 58.5634 256.061 55.9138C253.78 52.1823 246.891 52.4105 243.844 53.4629L243.41 54.0076C243.41 54.0076 237.441 55.3986 237.352 60.3445C234.997 60.6463 232.502 60.2562 234.482 61.8165Z" fill="#E1DAFC"/>
<path opacity="0.2" d="M243.41 54.037L243.844 53.4923C247.057 53.3011 250.221 54.3555 252.676 56.4363C250.387 55.06 246.56 53.772 243.41 54.037Z" fill="black"/>
<path d="M240.099 67.469C238.796 67.2924 237.56 69.1912 237.111 70.5455C236.618 72.0616 237.155 73.4895 238.509 72.9743C239.598 72.5308 240.492 71.7106 241.026 70.6632C241.74 69.3016 241.409 67.6383 240.099 67.469Z" fill="#FFB573"/>
<path d="M258.638 259.815C262.399 259.153 262.318 261.096 262.568 263.179C262.759 264.44 262.542 265.729 261.95 266.859C260.625 269.192 261.758 272.637 257.534 272.637C253.309 272.637 252.934 271.658 254.067 269.575C255.132 267.467 255.877 265.212 256.275 262.885C256.562 261.678 256.967 260.11 258.638 259.815Z" fill="#263238"/>
<path d="M262.325 264.268C262.325 266.793 262.369 272.636 262.369 272.636H261.699C261.699 272.636 261.125 266.417 260.765 264.739L262.325 264.268Z" fill="#263238"/>
<path d="M230.442 260.647C230.723 261.316 230.841 262.043 230.788 262.767C230.633 265.431 230.052 272.511 230.052 272.511H229.441C229.536 270.341 229.516 268.166 229.382 265.998C229.154 264.239 228.285 267.345 227.064 269.096C225.842 270.848 223.516 272.452 219.542 272.578C214.89 272.725 213.013 272.526 214.39 271.363C215.766 270.2 218.901 269.435 218.901 269.435C221.362 268.351 223.41 266.506 224.745 264.172C225.9 262.278 227.594 260.771 229.61 259.845C229.805 259.897 229.984 259.998 230.13 260.138C230.275 260.279 230.382 260.454 230.442 260.647Z" fill="#263238"/>
</svg>
